<svg 
 xmlns="http://www.w3.org/2000/svg"
 xmlns:xlink="http://www.w3.org/1999/xlink"
 width="14px" height="14px"
 >
<path 
 d="M11.729,13.000 L1.271,13.000 C0.569,12.999 0.001,12.431 -0.000,11.729 L-0.000,1.271 C0.001,0.569 0.569,0.001 1.271,-0.000 L11.729,-0.000 C12.431,0.001 12.999,0.569 13.000,1.271 L13.000,11.729 C12.999,12.431 12.431,12.999 11.729,13.000 ZM12.120,1.271 C12.120,1.055 11.945,0.880 11.729,0.880 L1.271,0.880 C1.055,0.880 0.880,1.055 0.880,1.271 L0.880,11.729 C0.880,11.945 1.055,12.120 1.271,12.120 L11.729,12.120 C11.945,12.120 12.120,11.945 12.120,11.729 L12.120,1.271 ZM9.584,6.924 L6.924,6.924 L6.924,9.584 C6.924,9.818 6.734,10.008 6.500,10.008 C6.266,10.008 6.076,9.818 6.076,9.584 L6.076,6.924 L3.415,6.924 C3.181,6.924 2.992,6.734 2.992,6.500 C2.992,6.266 3.181,6.076 3.415,6.076 L6.076,6.076 L6.076,3.415 C6.076,3.181 6.266,2.992 6.500,2.992 C6.734,2.992 6.924,3.181 6.924,3.415 L6.924,6.076 L9.584,6.076 C9.818,6.076 10.008,6.266 10.008,6.500 C10.008,6.734 9.818,6.924 9.584,6.924 Z"/>
</svg>
