<svg 
 xmlns="http://www.w3.org/2000/svg"
 xmlns:xlink="http://www.w3.org/1999/xlink"
 width="14px" height="14px">
<path fill-rule="evenodd"  fill="rgb(68, 68, 68)"
 d="M5.376,12.327 C5.376,12.661 5.152,12.884 4.816,12.884 L1.624,12.884 C1.288,12.884 1.064,12.661 1.064,12.327 L1.064,9.092 C1.064,8.757 1.288,8.534 1.624,8.534 L4.872,8.534 C5.208,8.534 5.432,8.757 5.432,9.092 L5.376,12.327 ZM4.872,7.530 L1.624,7.530 C0.784,7.530 -0.000,8.255 -0.000,9.147 L-0.000,12.382 C-0.000,13.163 0.728,13.944 1.624,13.944 L4.872,13.944 C5.712,13.944 6.496,13.219 6.496,12.327 L6.496,9.092 C6.440,8.255 5.712,7.530 4.872,7.530 ZM12.936,12.327 C12.936,12.661 12.712,12.884 12.376,12.884 L9.128,12.884 C8.792,12.884 8.568,12.661 8.568,12.327 L8.568,9.092 C8.568,8.757 8.792,8.534 9.128,8.534 L12.376,8.534 C12.712,8.534 12.936,8.757 12.936,9.092 L12.936,12.327 L12.936,12.327 ZM12.376,7.530 L9.128,7.530 C8.288,7.530 7.504,8.255 7.504,9.147 L7.504,12.382 C7.504,13.219 8.232,14.000 9.128,14.000 L12.376,14.000 C13.216,14.000 14.000,13.275 14.000,12.382 L14.000,9.147 C14.000,8.255 13.216,7.530 12.376,7.530 L12.376,7.530 ZM12.936,4.797 C12.936,5.131 12.712,5.355 12.376,5.355 L9.128,5.355 C8.792,5.355 8.568,5.131 8.568,4.797 L8.568,1.618 C8.568,1.283 8.792,1.060 9.128,1.060 L12.376,1.060 C12.712,1.060 12.936,1.283 12.936,1.618 L12.936,4.797 L12.936,4.797 ZM12.376,0.000 L9.128,0.000 C8.288,0.000 7.504,0.725 7.504,1.618 L7.504,4.853 C7.504,5.689 8.232,6.470 9.128,6.470 L12.376,6.470 C13.216,6.470 14.000,5.745 14.000,4.853 L14.000,1.618 C14.000,0.725 13.216,0.000 12.376,0.000 L12.376,0.000 ZM2.072,5.187 C2.296,5.299 2.576,5.299 2.800,5.187 L6.272,1.729 C6.384,1.618 6.440,1.506 6.440,1.339 C6.440,1.171 6.384,1.060 6.272,0.948 C6.160,0.837 6.048,0.781 5.880,0.781 C5.712,0.781 5.600,0.892 5.488,1.004 L2.464,3.960 L0.952,2.510 C0.896,2.398 0.728,2.343 0.616,2.343 C0.504,2.343 0.336,2.398 0.224,2.510 C-0.000,2.677 -0.000,3.012 0.112,3.235 L2.072,5.187 Z"/>
</svg>
