<svg 
 xmlns="http://www.w3.org/2000/svg"
 xmlns:xlink="http://www.w3.org/1999/xlink"
 width="14px" height="14px">
<path fill-rule="evenodd"  fill="rgb(68, 68, 68)"
 d="M13.501,5.500 C13.210,5.516 12.961,5.291 12.945,4.997 L12.945,1.863 C12.945,1.422 12.590,1.064 12.152,1.064 L1.847,1.064 C1.409,1.064 1.054,1.422 1.054,1.863 L1.054,12.132 C1.054,12.573 1.409,12.931 1.847,12.931 L5.400,12.931 L5.400,12.938 C5.400,12.938 5.401,12.938 5.401,12.938 C5.688,12.938 5.922,13.173 5.921,13.464 C5.921,13.754 5.688,13.989 5.400,13.989 L5.400,13.995 L1.847,13.995 C0.827,13.994 0.001,13.160 -0.000,12.132 L-0.000,1.863 C0.001,0.835 0.827,0.001 1.847,-0.000 L12.152,-0.000 C13.172,0.001 13.998,0.835 13.999,1.863 L13.999,4.997 C13.984,5.269 13.770,5.485 13.501,5.500 ZM5.560,9.586 C5.559,9.674 5.488,9.744 5.401,9.745 L4.664,9.745 C4.578,9.745 4.505,9.671 4.505,9.586 L4.505,8.115 L2.552,8.115 C2.465,8.115 2.395,8.045 2.393,7.958 L2.393,7.212 C2.394,7.124 2.465,7.053 2.552,7.053 L4.505,7.053 L4.505,6.218 L2.552,6.218 C2.465,6.218 2.394,6.147 2.393,6.059 L2.393,5.315 C2.393,5.315 2.393,5.315 2.393,5.314 C2.393,5.226 2.464,5.154 2.552,5.154 L4.142,5.154 L2.342,3.338 L2.342,3.338 C2.280,3.275 2.280,3.174 2.342,3.112 L2.864,2.586 C2.864,2.586 2.864,2.586 2.864,2.586 C2.926,2.524 3.026,2.524 3.088,2.586 L5.032,4.548 L6.977,2.586 C6.977,2.586 6.977,2.586 6.978,2.586 C7.039,2.524 7.138,2.524 7.200,2.586 L7.721,3.112 C7.783,3.174 7.783,3.275 7.723,3.338 L5.923,5.154 L7.514,5.154 C7.602,5.155 7.672,5.227 7.672,5.315 L7.672,6.059 C7.672,6.147 7.601,6.217 7.514,6.218 L5.561,6.218 L5.561,7.053 L7.514,7.053 C7.601,7.053 7.672,7.124 7.672,7.212 L7.671,7.212 L7.671,7.957 C7.670,8.044 7.600,8.114 7.513,8.114 L5.560,8.114 L5.560,9.586 ZM8.045,11.340 C8.105,11.187 8.219,11.066 8.362,11.003 C8.414,10.981 8.468,10.976 8.523,10.968 C8.543,10.966 8.561,10.955 8.582,10.955 L13.417,10.955 C13.721,10.968 13.965,11.228 13.977,11.552 C13.989,11.895 13.739,12.184 13.417,12.197 L9.988,12.197 L10.646,12.901 C10.648,12.903 10.651,12.906 10.653,12.908 C10.878,13.153 10.875,13.545 10.646,13.785 C10.417,14.024 10.049,14.021 9.824,13.777 L8.172,12.016 C8.118,11.958 8.076,11.889 8.046,11.814 C8.026,11.753 8.013,11.690 8.010,11.626 C8.009,11.607 8.001,11.593 8.001,11.577 C8.001,11.551 8.012,11.527 8.015,11.504 C8.022,11.447 8.026,11.393 8.045,11.340 ZM9.143,4.996 L10.856,4.996 C10.857,4.996 10.857,4.996 10.858,4.996 C10.930,4.997 10.988,5.064 10.988,5.146 L10.988,5.848 C10.988,5.930 10.929,5.997 10.856,5.997 L9.143,5.997 C9.071,5.998 9.011,5.931 9.011,5.848 L9.011,5.146 C9.011,5.063 9.071,4.996 9.143,4.996 ZM8.981,3.143 C8.982,3.059 9.072,2.992 9.182,2.993 L11.786,2.993 C11.896,2.993 11.985,3.060 11.985,3.143 L11.985,3.844 C11.985,3.926 11.897,3.994 11.786,3.994 L9.182,3.994 C9.072,3.994 8.982,3.927 8.981,3.844 L8.981,3.143 ZM13.639,9.944 C13.587,9.967 13.531,9.973 13.476,9.978 C13.456,9.982 13.438,9.991 13.418,9.991 L8.583,9.991 C8.287,9.974 8.050,9.721 8.034,9.405 C8.016,9.062 8.262,8.769 8.583,8.750 L12.014,8.750 L11.354,8.049 C11.127,7.806 11.127,7.413 11.354,7.171 C11.581,6.928 11.950,6.928 12.177,7.171 L13.827,8.932 C13.882,8.990 13.925,9.059 13.954,9.135 C13.974,9.194 13.987,9.257 13.990,9.320 C13.990,9.339 13.999,9.353 13.999,9.372 C13.999,9.397 13.989,9.421 13.985,9.446 C13.978,9.502 13.975,9.556 13.955,9.607 C13.896,9.760 13.782,9.882 13.639,9.944 Z"/>
</svg>
