<svg 
 xmlns="http://www.w3.org/2000/svg"
 xmlns:xlink="http://www.w3.org/1999/xlink"
 width="14px" height="14px">
<path fill-rule="evenodd"  fill="rgb(68, 68, 68)"
 d="M13.930,10.028 C13.974,10.071 13.999,10.131 13.999,10.193 L13.999,10.802 C14.000,10.931 13.896,11.036 13.767,11.036 C13.767,11.036 13.766,11.036 13.766,11.036 L13.408,11.036 C13.250,11.043 13.111,11.145 13.057,11.294 L12.873,11.745 C12.802,11.876 12.831,12.069 12.936,12.173 L13.190,12.427 C13.281,12.518 13.282,12.666 13.191,12.758 C13.191,12.758 13.190,12.759 13.190,12.759 L12.758,13.190 C12.714,13.234 12.654,13.259 12.592,13.258 C12.530,13.258 12.470,13.233 12.426,13.189 L12.174,12.935 C12.057,12.829 11.887,12.804 11.745,12.874 L11.293,13.058 C11.145,13.112 11.044,13.250 11.037,13.408 L11.037,13.765 C11.037,13.895 10.932,14.000 10.802,14.000 L10.802,14.000 L10.194,14.000 C10.131,14.000 10.071,13.975 10.027,13.930 C9.983,13.887 9.958,13.827 9.958,13.765 L9.958,13.408 C9.952,13.250 9.850,13.112 9.702,13.058 L9.250,12.874 C9.109,12.804 8.939,12.829 8.823,12.935 L8.568,13.189 C8.478,13.280 8.330,13.281 8.239,13.191 C8.238,13.190 8.238,13.189 8.237,13.189 L7.806,12.759 C7.714,12.667 7.714,12.518 7.806,12.426 L8.060,12.173 C8.165,12.068 8.193,11.876 8.124,11.744 L7.937,11.294 C7.884,11.145 7.746,11.043 7.589,11.036 L7.231,11.036 C7.102,11.037 6.996,10.932 6.996,10.802 C6.996,10.802 6.996,10.802 6.996,10.801 L6.996,10.193 C6.995,10.064 7.100,9.959 7.229,9.958 C7.229,9.958 7.230,9.958 7.231,9.958 L7.589,9.958 C7.737,9.958 7.894,9.844 7.938,9.702 L8.124,9.250 C8.192,9.108 8.167,8.939 8.060,8.823 L7.806,8.568 C7.715,8.477 7.714,8.329 7.805,8.238 C7.806,8.237 7.806,8.237 7.806,8.236 L8.236,7.807 C8.328,7.716 8.476,7.716 8.568,7.807 L8.823,8.060 C8.928,8.165 9.120,8.193 9.250,8.123 L9.702,7.938 C9.851,7.884 9.952,7.746 9.958,7.588 L9.958,7.230 C9.958,7.101 10.063,6.996 10.192,6.996 C10.193,6.996 10.193,6.996 10.194,6.996 L10.803,6.996 C10.932,6.996 11.036,7.101 11.037,7.230 L11.037,7.589 C11.037,7.737 11.153,7.895 11.293,7.938 L11.744,8.123 C11.876,8.193 12.068,8.165 12.173,8.060 L12.427,7.807 C12.519,7.715 12.667,7.715 12.758,7.807 L13.190,8.236 C13.282,8.328 13.282,8.476 13.191,8.568 C13.190,8.568 13.190,8.569 13.190,8.569 L12.936,8.823 C12.829,8.939 12.804,9.108 12.873,9.250 L13.058,9.701 C13.102,9.843 13.260,9.958 13.408,9.958 L13.766,9.958 C13.825,9.958 13.885,9.981 13.930,10.028 L13.930,10.028 ZM10.499,11.844 C11.242,11.844 11.846,11.242 11.846,10.498 C11.846,9.754 11.243,9.151 10.499,9.150 C9.755,9.150 9.153,9.753 9.153,10.497 C9.153,11.241 9.755,11.844 10.499,11.844 L10.499,11.844 L10.499,11.844 ZM8.944,1.167 L8.944,5.055 L12.833,5.055 L12.833,1.167 L8.944,1.167 ZM8.555,-0.000 L13.222,-0.000 C13.651,-0.000 14.000,0.348 14.000,0.778 L14.000,0.778 L14.000,5.444 C14.000,5.874 13.651,6.222 13.222,6.222 L13.222,6.222 L8.555,6.222 C8.126,6.222 7.778,5.874 7.778,5.444 L7.778,5.444 L7.778,0.778 C7.778,0.348 8.126,-0.000 8.555,-0.000 L8.555,-0.000 ZM1.167,1.167 L1.167,5.055 L5.055,5.055 L5.055,1.167 L1.167,1.167 ZM0.778,-0.000 L5.444,-0.000 C5.874,-0.000 6.222,0.348 6.222,0.778 L6.222,5.444 C6.222,5.874 5.874,6.222 5.444,6.222 L0.778,6.222 C0.348,6.222 -0.000,5.874 -0.000,5.444 L-0.000,0.778 C-0.000,0.348 0.348,-0.000 0.778,-0.000 L0.778,-0.000 ZM1.167,8.944 L1.167,12.833 L5.055,12.833 L5.055,8.944 L1.167,8.944 ZM0.778,7.778 L5.444,7.778 C5.874,7.778 6.222,8.126 6.222,8.555 L6.222,8.555 L6.222,13.222 C6.222,13.651 5.874,14.000 5.444,14.000 L5.444,14.000 L0.778,14.000 C0.348,14.000 -0.000,13.651 -0.000,13.222 L-0.000,13.222 L-0.000,8.555 C-0.000,8.126 0.348,7.778 0.778,7.778 L0.778,7.778 Z"/>
</svg>
