<svg 
 xmlns="http://www.w3.org/2000/svg"
 xmlns:xlink="http://www.w3.org/1999/xlink"
 width="20px" height="20px">
<path fill-rule="evenodd"  fill="rgb(255, 255, 255)"
 d="M17.529,9.295 L13.254,9.295 C11.890,9.293 10.784,8.178 10.783,6.803 L10.783,2.492 C10.784,1.116 11.890,0.001 13.254,-0.000 L17.529,-0.000 C18.893,0.001 19.999,1.116 20.000,2.492 L20.000,6.803 C19.999,8.178 18.893,9.293 17.529,9.295 ZM18.488,2.492 C18.487,1.958 18.058,1.526 17.529,1.525 L13.254,1.525 C12.725,1.526 12.296,1.958 12.295,2.492 L12.295,6.803 C12.296,7.336 12.725,7.769 13.254,7.769 L17.529,7.769 C18.058,7.769 18.487,7.336 18.488,6.803 L18.488,2.492 ZM6.747,20.000 L2.471,20.000 C1.107,19.999 0.001,18.884 -0.000,17.508 L-0.000,13.197 C0.001,11.821 1.107,10.707 2.471,10.705 L6.747,10.705 C8.111,10.707 9.216,11.821 9.218,13.197 L9.218,17.508 C9.216,18.884 8.111,19.999 6.747,20.000 ZM7.705,13.197 C7.705,12.664 7.276,12.231 6.747,12.231 L2.471,12.231 C1.942,12.231 1.513,12.664 1.512,13.197 L1.512,17.508 C1.513,18.042 1.942,18.474 2.471,18.475 L6.747,18.475 C7.276,18.474 7.705,18.042 7.705,17.508 L7.705,13.197 ZM6.747,9.295 L2.471,9.295 C1.107,9.293 0.001,8.178 -0.000,6.803 L-0.000,2.492 C0.001,1.116 1.107,0.001 2.471,-0.000 L6.747,-0.000 C8.111,0.001 9.216,1.116 9.218,2.492 L9.218,6.803 C9.216,8.178 8.111,9.293 6.747,9.295 ZM7.705,2.492 C7.705,1.958 7.276,1.526 6.747,1.525 L2.471,1.525 C1.942,1.526 1.513,1.958 1.512,2.492 L1.512,6.803 C1.513,7.336 1.942,7.769 2.471,7.769 L6.747,7.769 C7.276,7.769 7.705,7.336 7.705,6.803 L7.705,2.492 ZM13.242,15.688 C12.825,15.680 12.493,15.332 12.501,14.911 C12.509,14.501 12.836,14.171 13.242,14.163 L14.485,14.163 L14.485,14.147 L13.127,12.778 C12.845,12.467 12.867,11.984 13.175,11.700 C13.464,11.435 13.906,11.435 14.195,11.700 L15.240,12.754 L16.287,11.699 C16.595,11.415 17.074,11.437 17.355,11.748 C17.619,12.039 17.619,12.485 17.355,12.776 L15.998,14.147 L15.998,14.163 L17.241,14.163 C17.659,14.155 18.004,14.489 18.012,14.911 C18.021,15.332 17.689,15.680 17.271,15.688 C17.261,15.688 17.251,15.688 17.241,15.688 L15.998,15.688 L15.998,16.574 L17.241,16.574 C17.659,16.565 18.004,16.900 18.012,17.321 C18.021,17.743 17.689,18.091 17.271,18.099 C17.261,18.099 17.251,18.099 17.241,18.099 L15.998,18.099 L15.998,18.930 C15.998,19.351 15.659,19.693 15.242,19.693 C14.824,19.693 14.486,19.352 14.485,18.930 C14.485,18.930 14.485,18.930 14.485,18.930 L14.485,18.099 L13.242,18.099 C12.825,18.091 12.493,17.743 12.501,17.321 C12.509,16.912 12.836,16.582 13.242,16.574 L14.485,16.574 L14.485,15.688 L13.242,15.688 Z"/>
</svg>
