<svg 
 xmlns="http://www.w3.org/2000/svg"
 xmlns:xlink="http://www.w3.org/1999/xlink"
 width="21px" height="20px">
<path fill-rule="evenodd"  opacity="0.6" fill="rgb(255, 255, 255)"
 d="M18.789,14.695 C18.841,14.747 18.841,14.800 18.894,14.800 C19.578,15.901 19.210,17.370 18.052,18.000 C16.946,18.682 15.472,18.314 14.841,17.160 C14.156,16.059 14.525,14.590 15.683,13.960 C16.262,13.646 16.946,13.593 17.525,13.751 C18.789,11.338 18.789,8.295 17.315,5.777 C15.472,2.630 11.893,1.108 8.471,1.738 C8.050,1.790 7.682,1.528 7.577,1.161 C7.471,0.689 7.735,0.269 8.208,0.164 C12.209,-0.570 16.473,1.213 18.683,4.990 C20.473,8.085 20.368,11.757 18.789,14.695 ZM17.525,15.639 C17.315,15.272 16.841,15.167 16.473,15.377 C16.104,15.587 15.999,16.059 16.209,16.426 C16.420,16.793 16.894,16.898 17.262,16.688 C17.631,16.478 17.736,16.006 17.525,15.639 ZM10.261,4.413 L12.630,5.777 C12.788,5.882 12.893,6.039 12.893,6.249 L12.893,8.085 C12.893,8.295 12.998,8.452 13.156,8.557 L14.736,9.449 C14.893,9.554 14.999,9.711 14.999,9.921 L14.999,12.649 C14.999,12.859 14.893,13.016 14.736,13.121 L12.367,14.485 C12.209,14.590 11.998,14.590 11.840,14.485 L9.998,13.436 L8.156,14.485 C7.998,14.590 7.787,14.590 7.629,14.485 L5.261,13.121 C5.103,13.016 4.997,12.859 4.997,12.649 L4.997,9.921 C4.997,9.711 5.103,9.554 5.261,9.449 L6.840,8.557 C6.998,8.452 7.103,8.295 7.103,8.085 L7.103,6.249 C7.103,6.039 7.208,5.882 7.366,5.777 L9.735,4.413 C9.893,4.308 10.103,4.308 10.261,4.413 ZM10.788,12.072 L12.104,12.806 L13.420,12.072 L13.420,10.551 L12.104,9.816 L10.788,10.551 L10.788,12.072 ZM6.577,10.551 L6.577,12.072 L7.892,12.806 L9.208,12.072 L9.208,10.551 L7.892,9.816 L6.577,10.551 ZM8.682,8.400 L9.998,9.134 L11.314,8.400 L11.314,6.879 L9.998,6.144 L8.682,6.879 L8.682,8.400 ZM4.313,5.987 C3.734,6.302 3.050,6.354 2.471,6.197 C1.207,8.610 1.207,11.652 2.681,14.170 C4.524,17.318 8.103,18.839 11.525,18.210 C11.946,18.157 12.314,18.367 12.419,18.839 C12.525,19.311 12.262,19.731 11.788,19.836 C7.735,20.570 3.471,18.787 1.313,15.010 C-0.477,11.915 -0.372,8.243 1.207,5.305 C1.155,5.253 1.155,5.200 1.102,5.148 C0.418,4.046 0.786,2.577 1.944,1.948 C3.050,1.266 4.524,1.633 5.155,2.787 C5.840,3.889 5.471,5.357 4.313,5.987 ZM3.787,3.521 C3.576,3.154 3.102,3.049 2.734,3.259 C2.365,3.469 2.260,3.941 2.471,4.308 C2.681,4.676 3.155,4.780 3.523,4.571 C3.892,4.361 3.997,3.889 3.787,3.521 Z"/>
</svg>
