<svg 
 xmlns="http://www.w3.org/2000/svg"
 xmlns:xlink="http://www.w3.org/1999/xlink"
 width="14px" height="14px">
<path fill-rule="evenodd" opacity="0.6" fill="rgb(255,255,255)"
 d="M7.395,3.501 L9.136,5.179 C9.328,5.365 9.328,5.665 9.136,5.851 L7.395,7.530 C7.203,7.715 6.892,7.715 6.699,7.530 L4.959,5.851 C4.767,5.665 4.767,5.365 4.959,5.179 L6.699,3.501 C6.892,3.316 7.203,3.316 7.395,3.501 ZM7.047,6.521 L7.047,6.522 L8.091,5.515 L7.047,4.508 L6.004,5.515 L7.047,6.521 ZM13.480,14.000 L5.724,14.000 C3.563,14.000 0.872,11.295 0.180,9.540 C-0.195,8.587 0.079,8.085 0.375,7.831 C0.612,7.628 0.894,7.521 1.191,7.521 C1.991,7.521 2.726,8.274 3.505,9.072 C4.051,9.631 4.670,10.266 5.177,10.454 C6.176,10.821 7.236,11.009 8.305,11.010 C7.993,10.628 7.730,10.280 7.660,10.113 C7.547,9.841 7.596,9.512 7.792,9.234 C8.025,8.901 8.411,8.720 8.814,8.781 C9.049,8.816 9.640,9.012 10.336,9.261 C10.348,9.249 10.353,9.233 10.365,9.222 C11.364,8.328 11.929,7.071 11.924,5.757 C11.921,3.131 9.714,1.003 6.991,1.001 C6.780,1.001 6.569,1.014 6.360,1.040 C3.656,1.380 1.749,3.769 2.101,6.377 C2.139,6.651 1.939,6.903 1.654,6.939 C1.370,6.975 1.109,6.782 1.072,6.507 C1.039,6.263 1.023,6.011 1.023,5.757 C1.023,2.583 3.701,-0.000 6.991,-0.000 C10.284,-0.000 12.962,2.583 12.962,5.757 C12.957,7.199 12.392,8.586 11.379,9.646 C12.376,10.021 13.346,10.403 13.677,10.534 L13.678,10.534 C13.873,10.610 14.000,10.794 13.999,10.997 L13.999,13.499 C13.999,13.776 13.767,14.000 13.480,14.000 ZM12.960,11.333 C11.293,10.678 9.028,9.827 8.657,9.771 C8.660,9.774 8.656,9.781 8.652,9.790 C8.793,10.001 9.305,10.623 9.743,11.125 C9.803,11.193 9.843,11.275 9.858,11.364 C9.906,11.636 9.715,11.894 9.433,11.940 C9.416,11.943 8.990,12.012 8.319,12.012 C7.117,12.012 5.926,11.801 4.804,11.389 C4.076,11.118 3.401,10.426 2.749,9.758 C2.240,9.237 1.543,8.523 1.192,8.523 C1.171,8.523 1.132,8.523 1.065,8.580 C1.042,8.599 0.987,8.767 1.152,9.184 C1.717,10.619 4.141,12.999 5.724,12.999 L12.960,12.999 L12.960,11.333 Z"/>
</svg>
