<svg 
 xmlns="http://www.w3.org/2000/svg"
 xmlns:xlink="http://www.w3.org/1999/xlink"
 width="14px" height="14px">
<path fill-rule="evenodd"  fill="rgb(68, 68, 68)"
 d="M11.500,-0.000 C12.272,-0.000 12.919,0.587 12.994,1.356 L13.000,1.500 L13.000,9.086 C13.548,9.280 13.934,9.772 13.992,10.351 L14.000,10.500 L14.000,12.500 C14.000,13.272 13.412,13.919 12.644,13.994 L12.500,14.000 L1.500,14.000 C0.728,14.000 0.081,13.412 0.006,12.644 L-0.000,12.500 L-0.000,10.500 C-0.000,9.864 0.400,9.297 1.000,9.084 L1.000,3.500 C1.000,2.726 1.587,2.081 2.356,2.006 L2.500,2.000 L3.000,2.000 L3.000,1.500 C3.000,0.728 3.587,0.081 4.356,0.006 L4.500,-0.000 L11.500,-0.000 ZM5.000,10.000 L1.500,10.000 C1.291,10.000 1.105,10.130 1.031,10.326 L1.008,10.411 L1.000,10.500 L1.000,12.500 C1.000,12.742 1.172,12.948 1.409,12.992 L1.500,13.000 L12.500,13.000 C12.742,13.000 12.948,12.828 12.992,12.590 L13.000,12.500 L13.000,10.500 C13.000,10.258 12.828,10.051 12.591,10.008 L12.500,10.000 L9.000,10.000 L9.000,11.500 C9.000,11.742 8.828,11.948 8.591,11.992 L8.500,12.000 L5.500,12.000 C5.258,12.000 5.052,11.828 5.008,11.590 L5.000,11.500 L5.000,10.000 ZM11.500,1.000 L4.500,1.000 C4.258,1.000 4.052,1.172 4.008,1.409 L4.000,1.500 L4.000,9.000 L5.500,9.000 C5.742,9.000 5.948,9.172 5.992,9.409 L6.000,9.500 L6.000,11.000 L8.000,11.000 L8.000,9.500 C8.000,9.291 8.130,9.105 8.327,9.031 L8.411,9.008 L8.501,9.000 L12.001,9.000 L12.001,1.500 C12.001,1.258 11.830,1.051 11.592,1.008 L11.500,1.000 ZM3.000,3.000 L2.500,3.000 C2.258,3.000 2.052,3.172 2.008,3.409 L2.000,3.500 L2.000,9.000 L3.000,9.000 L3.000,3.000 ZM9.500,6.000 C9.776,6.000 10.000,6.223 10.000,6.500 C10.000,6.776 9.776,7.000 9.500,7.000 L9.500,7.000 L6.500,7.000 C6.223,7.000 6.000,6.776 6.000,6.500 C6.000,6.223 6.223,6.000 6.500,6.000 L6.500,6.000 L9.500,6.000 ZM9.500,4.000 C9.776,4.000 10.000,4.223 10.000,4.500 C10.000,4.776 9.776,5.000 9.500,5.000 L9.500,5.000 L6.500,5.000 C6.223,5.000 6.000,4.776 6.000,4.500 C6.000,4.223 6.223,4.000 6.500,4.000 L6.500,4.000 L9.500,4.000 Z"/>
</svg>
