<svg 
 xmlns="http://www.w3.org/2000/svg"
 xmlns:xlink="http://www.w3.org/1999/xlink"
 width="14px" height="14px">
<path fill-rule="evenodd"  fill="rgb(68, 68, 68)"
 d="M11.737,9.917 L10.229,8.408 L11.054,7.583 L13.941,10.471 L11.054,13.358 L10.229,12.533 L11.678,11.083 L4.666,11.083 L4.666,9.917 L11.737,9.917 ZM12.249,10.429 L12.249,10.512 L12.291,10.471 L12.249,10.429 L12.249,10.429 ZM3.499,1.167 L1.166,1.167 L1.166,12.833 L6.999,12.833 L6.999,14.000 L1.166,14.000 C0.521,14.000 -0.001,13.478 -0.001,12.833 L-0.001,12.833 L-0.001,1.167 C-0.001,0.522 0.521,-0.000 1.166,-0.000 L11.083,-0.000 L14.000,2.917 L14.000,7.000 L12.833,7.000 L12.833,3.500 L10.499,1.167 L10.499,5.833 C10.499,6.478 9.977,7.000 9.333,7.000 L9.333,7.000 L4.666,7.000 C4.022,7.000 3.499,6.478 3.499,5.833 L3.499,1.167 ZM4.666,5.833 L9.333,5.833 L9.333,1.167 L4.666,1.167 L4.666,5.833 ZM6.999,2.333 L8.166,2.333 L8.166,4.667 L6.999,4.667 L6.999,2.333 Z"/>
</svg>
