<svg 
 xmlns="http://www.w3.org/2000/svg"
 xmlns:xlink="http://www.w3.org/1999/xlink"
 width="14px" height="14px">
<path fill-rule="evenodd"  fill="rgb(68, 68, 68)"
 d="M12.000,1.000 L1.000,1.000 L1.000,12.000 L4.333,12.000 L4.333,13.333 L-0.001,13.333 L-0.001,-0.000 L13.333,-0.000 L13.333,4.667 L12.000,4.667 L12.000,1.000 ZM5.000,4.992 L2.009,4.992 L2.009,4.000 L5.000,4.000 L5.000,4.992 ZM11.010,3.008 L2.010,3.008 L2.010,1.992 L11.010,1.992 L11.010,3.008 ZM9.333,4.667 C11.910,4.667 14.000,6.756 14.000,9.333 C14.000,11.911 11.910,14.000 9.333,14.000 C6.756,14.000 4.666,11.911 4.666,9.333 C4.666,6.756 6.756,4.667 9.333,4.667 ZM9.333,12.667 C11.174,12.667 12.666,11.174 12.666,9.333 C12.666,7.492 11.174,6.000 9.333,6.000 C7.492,6.000 6.000,7.492 6.000,9.333 C6.000,11.174 7.492,12.667 9.333,12.667 ZM10.000,9.333 L8.666,9.333 L8.666,7.333 L10.000,7.333 L10.000,9.333 ZM10.000,11.333 L8.666,11.333 L8.666,10.000 L10.000,10.000 L10.000,11.333 Z"/>
</svg>
