<svg 
 xmlns="http://www.w3.org/2000/svg"
 xmlns:xlink="http://www.w3.org/1999/xlink"
 width="14px" height="14px">
<path fill-rule="evenodd" opacity="0.6" fill="rgb(255,255,255)"
 d="M7.023,13.923 C6.614,13.923 6.206,13.886 5.800,13.811 C5.589,13.773 5.449,13.571 5.488,13.360 C5.527,13.150 5.729,13.010 5.940,13.049 C6.633,13.176 7.334,13.181 8.024,13.063 C8.735,12.942 9.415,12.694 10.045,12.325 C10.046,12.325 10.047,12.324 10.048,12.323 C10.773,11.907 11.395,11.362 11.895,10.703 C12.377,10.067 12.727,9.353 12.934,8.580 C13.141,7.809 13.195,7.020 13.096,6.233 C12.994,5.419 12.731,4.644 12.314,3.929 C11.921,3.256 11.445,2.699 10.859,2.227 C10.693,2.092 10.667,1.848 10.802,1.682 C10.937,1.516 11.181,1.490 11.348,1.625 C12.008,2.157 12.544,2.783 12.986,3.539 C13.455,4.345 13.752,5.219 13.867,6.136 C13.979,7.023 13.918,7.912 13.685,8.780 C13.452,9.650 13.058,10.454 12.515,11.171 C11.952,11.912 11.253,12.526 10.437,12.994 C9.726,13.410 8.958,13.690 8.155,13.827 C7.779,13.891 7.401,13.923 7.023,13.923 ZM2.480,12.098 C2.385,12.098 2.290,12.063 2.215,11.994 C1.704,11.519 1.310,11.012 1.010,10.445 C0.543,9.642 0.248,8.770 0.132,7.856 C0.021,6.969 0.082,6.080 0.315,5.212 C0.548,4.342 0.942,3.537 1.485,2.821 C2.048,2.079 2.748,1.465 3.565,0.997 C4.710,0.335 6.029,0.020 7.376,0.086 C7.590,0.096 7.755,0.278 7.745,0.492 C7.734,0.705 7.552,0.870 7.338,0.860 C6.140,0.802 4.970,1.081 3.953,1.668 C3.226,2.085 2.605,2.630 2.105,3.289 C1.622,3.925 1.273,4.639 1.065,5.412 C0.859,6.183 0.804,6.972 0.904,7.759 C1.006,8.573 1.269,9.348 1.686,10.063 C1.688,10.068 1.691,10.072 1.694,10.077 C1.953,10.569 2.297,11.010 2.745,11.427 C2.902,11.573 2.910,11.818 2.764,11.975 C2.687,12.056 2.584,12.098 2.480,12.098 ZM7.023,14.000 C6.611,14.000 6.194,13.962 5.786,13.887 C5.663,13.865 5.557,13.796 5.486,13.694 C5.415,13.592 5.389,13.468 5.411,13.346 C5.434,13.224 5.503,13.118 5.605,13.047 C5.708,12.977 5.832,12.950 5.954,12.973 C6.638,13.098 7.329,13.103 8.011,12.987 C8.713,12.867 9.384,12.622 10.005,12.258 L10.009,12.256 C10.726,11.845 11.339,11.307 11.833,10.656 C12.309,10.028 12.655,9.323 12.859,8.560 C13.063,7.799 13.117,7.019 13.019,6.243 C12.918,5.439 12.658,4.674 12.247,3.968 C11.858,3.303 11.388,2.753 10.810,2.287 C10.611,2.126 10.580,1.832 10.741,1.633 C10.903,1.434 11.197,1.403 11.397,1.564 C12.064,2.103 12.606,2.736 13.053,3.500 C13.528,4.315 13.828,5.199 13.945,6.127 C14.057,7.023 13.995,7.922 13.760,8.800 C13.524,9.680 13.126,10.493 12.576,11.217 C12.007,11.967 11.301,12.588 10.476,13.061 C9.757,13.481 8.981,13.765 8.168,13.903 C7.790,13.968 7.405,14.000 7.023,14.000 ZM5.869,13.120 C5.807,13.120 5.746,13.139 5.693,13.175 C5.625,13.222 5.579,13.293 5.564,13.374 C5.549,13.456 5.567,13.538 5.614,13.606 C5.661,13.674 5.732,13.720 5.814,13.735 C6.213,13.808 6.620,13.845 7.023,13.845 C7.396,13.845 7.772,13.813 8.141,13.750 C8.936,13.615 9.695,13.338 10.397,12.927 C11.205,12.464 11.896,11.857 12.453,11.124 C12.990,10.416 13.379,9.620 13.610,8.760 C13.840,7.902 13.901,7.022 13.790,6.146 C13.676,5.239 13.383,4.375 12.919,3.578 C12.481,2.831 11.952,2.211 11.299,1.685 C11.166,1.577 10.970,1.598 10.862,1.731 C10.754,1.864 10.775,2.059 10.908,2.167 C11.501,2.645 11.983,3.209 12.381,3.890 C12.803,4.614 13.070,5.399 13.173,6.223 C13.274,7.020 13.219,7.819 13.010,8.600 C12.800,9.382 12.446,10.106 11.957,10.750 C11.451,11.417 10.821,11.969 10.086,12.391 L10.084,12.392 C9.446,12.765 8.757,13.017 8.037,13.139 C7.338,13.258 6.628,13.254 5.926,13.125 C5.907,13.122 5.888,13.120 5.869,13.120 ZM2.480,12.175 C2.361,12.175 2.248,12.131 2.162,12.050 C1.645,11.570 1.246,11.057 0.942,10.483 C0.470,9.671 0.172,8.790 0.055,7.865 C-0.058,6.969 0.004,6.069 0.240,5.192 C0.475,4.312 0.874,3.499 1.423,2.775 C1.993,2.024 2.700,1.403 3.526,0.930 C4.685,0.261 6.017,-0.058 7.380,0.008 C7.636,0.021 7.835,0.239 7.822,0.495 C7.810,0.744 7.604,0.938 7.357,0.938 C7.349,0.938 7.342,0.938 7.334,0.937 C6.152,0.880 4.996,1.155 3.992,1.735 C3.275,2.147 2.661,2.685 2.167,3.336 C1.690,3.963 1.345,4.669 1.141,5.432 C0.937,6.193 0.883,6.973 0.981,7.749 C1.082,8.553 1.342,9.318 1.753,10.024 C1.756,10.030 1.759,10.035 1.762,10.041 C2.018,10.525 2.356,10.960 2.798,11.370 C2.889,11.455 2.941,11.570 2.946,11.694 C2.950,11.818 2.906,11.937 2.821,12.027 C2.733,12.121 2.609,12.175 2.480,12.175 ZM7.027,0.155 C5.816,0.155 4.639,0.466 3.604,1.064 C2.796,1.527 2.104,2.134 1.547,2.868 C1.010,3.576 0.620,4.372 0.390,5.232 C0.160,6.090 0.099,6.969 0.209,7.846 C0.323,8.750 0.615,9.612 1.077,10.406 L1.078,10.409 C1.375,10.968 1.764,11.468 2.268,11.937 C2.325,11.991 2.401,12.020 2.480,12.020 C2.567,12.020 2.648,11.985 2.707,11.922 C2.764,11.861 2.793,11.782 2.790,11.700 C2.788,11.617 2.753,11.540 2.692,11.484 C2.237,11.061 1.888,10.613 1.625,10.113 C1.623,10.109 1.621,10.105 1.618,10.102 C1.197,9.378 0.930,8.593 0.826,7.769 C0.726,6.972 0.781,6.172 0.990,5.392 C1.200,4.609 1.554,3.886 2.043,3.242 C2.549,2.575 3.179,2.023 3.914,1.601 C4.944,1.007 6.129,0.723 7.342,0.782 C7.513,0.791 7.659,0.659 7.667,0.488 C7.676,0.317 7.543,0.172 7.372,0.163 C7.257,0.158 7.142,0.155 7.027,0.155 ZM6.643,5.662 L5.305,4.238 C5.126,4.060 5.156,3.764 5.335,3.586 L5.335,3.586 C5.513,3.408 5.810,3.438 5.989,3.616 L7.327,5.039 C7.505,5.217 7.476,5.513 7.297,5.691 L7.297,5.691 C7.089,5.840 6.821,5.840 6.643,5.662 ZM6.976,5.876 C6.833,5.876 6.694,5.822 6.588,5.716 L6.586,5.715 L5.249,4.292 C5.048,4.090 5.061,3.749 5.280,3.531 C5.482,3.329 5.825,3.343 6.044,3.561 L6.045,3.563 L7.383,4.985 C7.584,5.187 7.571,5.528 7.352,5.746 L7.348,5.751 L7.342,5.754 C7.228,5.836 7.100,5.876 6.976,5.876 ZM6.699,5.608 C6.843,5.751 7.062,5.760 7.247,5.632 C7.398,5.477 7.410,5.232 7.272,5.094 L7.270,5.092 L5.933,3.670 C5.777,3.515 5.529,3.502 5.390,3.641 C5.234,3.796 5.220,4.045 5.360,4.184 L5.362,4.185 L6.699,5.608 ZM6.703,5.039 L8.130,3.705 C8.308,3.527 8.606,3.556 8.784,3.734 L8.784,3.734 C8.933,3.912 8.933,4.179 8.754,4.357 L7.327,5.691 C7.149,5.869 6.851,5.869 6.673,5.691 L6.673,5.691 C6.494,5.513 6.524,5.217 6.703,5.039 ZM7.000,5.902 C6.854,5.902 6.719,5.847 6.618,5.746 C6.517,5.646 6.467,5.509 6.476,5.360 C6.485,5.221 6.547,5.084 6.648,4.984 L6.649,4.982 L8.076,3.649 C8.279,3.448 8.621,3.462 8.839,3.680 L8.844,3.685 C9.024,3.900 9.009,4.213 8.809,4.412 L8.808,4.414 L7.381,5.747 C7.280,5.847 7.145,5.902 7.000,5.902 ZM6.757,5.095 C6.683,5.168 6.638,5.268 6.631,5.370 C6.625,5.473 6.659,5.568 6.728,5.637 C6.799,5.708 6.896,5.747 7.000,5.747 C7.104,5.747 7.200,5.708 7.272,5.637 L7.274,5.635 L8.700,4.301 C8.841,4.160 8.852,3.940 8.727,3.787 C8.571,3.634 8.324,3.621 8.185,3.760 L8.183,3.761 L6.757,5.095 ZM10.985,1.273 L13.007,1.659 C13.245,1.718 13.423,1.955 13.364,2.193 L13.364,2.222 C13.304,2.459 13.066,2.637 12.828,2.578 L10.806,2.192 C10.568,2.133 10.390,1.896 10.450,1.659 L10.450,1.629 C10.509,1.392 10.747,1.214 10.985,1.273 ZM12.922,2.636 C12.888,2.636 12.853,2.632 12.819,2.623 L10.795,2.238 C10.668,2.206 10.553,2.126 10.478,2.019 C10.400,1.907 10.374,1.777 10.403,1.653 L10.403,1.623 L10.404,1.618 C10.473,1.344 10.743,1.166 10.995,1.228 L13.018,1.614 C13.145,1.645 13.261,1.725 13.335,1.833 C13.413,1.945 13.440,2.074 13.410,2.198 L13.410,2.228 L13.409,2.233 C13.377,2.360 13.297,2.475 13.190,2.550 C13.107,2.607 13.015,2.636 12.922,2.636 ZM10.816,2.147 L12.840,2.533 C12.939,2.558 13.045,2.536 13.137,2.473 C13.224,2.412 13.290,2.319 13.317,2.216 L13.317,2.187 L13.319,2.181 C13.343,2.082 13.322,1.977 13.259,1.885 C13.197,1.797 13.102,1.731 12.997,1.704 L10.973,1.319 C10.772,1.268 10.555,1.413 10.496,1.635 L10.496,1.665 L10.495,1.670 C10.470,1.769 10.491,1.874 10.555,1.966 C10.616,2.055 10.712,2.121 10.816,2.147 ZM0.844,11.058 L2.866,11.444 C3.104,11.503 3.283,11.740 3.223,11.977 L3.223,12.007 C3.164,12.244 2.926,12.422 2.688,12.363 L0.666,11.977 C0.428,11.918 0.249,11.681 0.309,11.444 L0.309,11.414 C0.339,11.177 0.606,10.999 0.844,11.058 ZM2.780,12.420 C2.746,12.420 2.712,12.416 2.678,12.408 L0.654,12.022 C0.382,11.954 0.203,11.688 0.262,11.438 L0.263,11.408 C0.278,11.284 0.353,11.168 0.467,11.090 C0.585,11.009 0.726,10.981 0.854,11.013 L2.878,11.398 C3.004,11.430 3.120,11.510 3.195,11.617 C3.273,11.729 3.299,11.859 3.270,11.983 L3.270,12.013 L3.268,12.018 C3.209,12.255 2.999,12.420 2.780,12.420 ZM0.676,11.932 L2.699,12.318 C2.901,12.368 3.118,12.223 3.177,12.001 L3.177,11.971 L3.178,11.966 C3.203,11.867 3.182,11.762 3.118,11.670 C3.056,11.581 2.961,11.515 2.856,11.489 L0.833,11.103 C0.730,11.078 0.616,11.101 0.520,11.167 C0.428,11.229 0.369,11.320 0.356,11.417 L0.356,11.449 L0.354,11.455 C0.303,11.657 0.451,11.875 0.676,11.932 ZM9.201,6.640 L4.829,6.640 C4.591,6.640 4.413,6.462 4.413,6.225 L4.413,6.136 C4.413,5.899 4.591,5.721 4.829,5.721 L9.201,5.721 C9.438,5.721 9.617,5.899 9.617,6.136 L9.617,6.225 C9.617,6.462 9.438,6.640 9.201,6.640 ZM9.201,6.718 L4.829,6.718 C4.547,6.718 4.335,6.506 4.335,6.225 L4.335,6.136 C4.335,5.855 4.547,5.644 4.829,5.644 L9.201,5.644 C9.482,5.644 9.695,5.855 9.695,6.136 L9.695,6.225 C9.695,6.506 9.482,6.718 9.201,6.718 ZM4.829,5.798 C4.633,5.798 4.490,5.940 4.490,6.136 L4.490,6.225 C4.490,6.421 4.633,6.563 4.829,6.563 L9.201,6.563 C9.397,6.563 9.539,6.421 9.539,6.225 L9.539,6.136 C9.539,5.940 9.397,5.798 9.201,5.798 L4.829,5.798 L4.829,5.798 ZM6.584,9.842 L6.584,6.551 C6.584,6.314 6.762,6.136 7.000,6.136 L7.089,6.136 C7.327,6.136 7.505,6.314 7.505,6.551 L7.505,9.872 C7.505,10.109 7.327,10.287 7.089,10.287 L6.970,10.287 C6.762,10.257 6.584,10.080 6.584,9.842 ZM7.089,10.365 L6.959,10.364 C6.701,10.327 6.506,10.103 6.506,9.842 L6.506,6.551 C6.506,6.270 6.718,6.059 7.000,6.059 L7.089,6.059 C7.371,6.059 7.583,6.270 7.583,6.551 L7.583,9.872 C7.583,10.153 7.371,10.365 7.089,10.365 ZM6.976,10.210 L7.089,10.210 C7.285,10.210 7.428,10.068 7.428,9.872 L7.428,6.551 C7.428,6.356 7.285,6.214 7.089,6.214 L7.000,6.214 C6.804,6.214 6.661,6.356 6.661,6.551 L6.661,9.842 C6.661,10.024 6.796,10.181 6.976,10.210 ZM9.201,8.716 L4.829,8.716 C4.591,8.716 4.413,8.538 4.413,8.301 L4.413,8.212 C4.413,7.974 4.591,7.796 4.829,7.796 L9.201,7.796 C9.438,7.796 9.617,7.974 9.617,8.212 L9.617,8.301 C9.617,8.538 9.438,8.716 9.201,8.716 ZM9.201,8.793 L4.829,8.793 C4.547,8.793 4.335,8.581 4.335,8.301 L4.335,8.212 C4.335,7.931 4.547,7.719 4.829,7.719 L9.201,7.719 C9.482,7.719 9.695,7.931 9.695,8.212 L9.695,8.301 C9.695,8.581 9.482,8.793 9.201,8.793 ZM4.829,7.874 C4.633,7.874 4.490,8.016 4.490,8.212 L4.490,8.301 C4.490,8.496 4.633,8.638 4.829,8.638 L9.201,8.638 C9.397,8.638 9.539,8.496 9.539,8.301 L9.539,8.212 C9.539,8.016 9.397,7.874 9.201,7.874 L4.829,7.874 Z"/>
</svg>
