<?xml version="1.0" standalone="no"?><!DOCTYPE svg PUBLIC "-//W3C//DTD SVG 1.1//EN" "http://www.w3.org/Graphics/SVG/1.1/DTD/svg11.dtd"><svg t="1703053529124" class="icon" viewBox="0 0 1024 1024" version="1.1" xmlns="http://www.w3.org/2000/svg" p-id="2000" xmlns:xlink="http://www.w3.org/1999/xlink" width="16" height="16"><path d="M512.6656 938.1376c-237.2096 0-430.1312-192.9728-430.1312-430.1312 0-237.1584 192.9728-430.1312 430.1312-430.1312 237.1584 0 430.1312 192.9728 430.1312 430.1312 0 237.1584-192.9728 430.1312-430.1312 430.1312z m0-809.1136c-208.9472 0-378.9312 169.984-378.9312 378.9312s169.984 378.9312 378.9312 378.9312 378.9312-169.984 378.9312-378.9312-169.984-378.9312-378.9312-378.9312z" fill="#4E9FF7" p-id="2001" data-spm-anchor-id="a313x.collections_detail.0.i0.46183a81eJybMt" class="selected"></path><path d="M660.3264 554.496h-122.0608V474.0608h122.0608c14.1312 0 25.6-11.4688 25.6-25.6s-11.4688-25.6-25.6-25.6h-100.1472l77.824-72.0896a25.58976 25.58976 0 0 0 1.3824-36.1984 25.58976 25.58976 0 0 0-36.1984-1.3824L511.8464 397.8752 422.2976 313.344a25.6256 25.6256 0 0 0-36.1984 1.024 25.63072 25.63072 0 0 0 1.0752 36.1984l76.5952 72.2944H365.0048c-14.1312 0-25.6 11.4688-25.6 25.6s11.4688 25.6 25.6 25.6h122.0608v80.4352H365.0048c-14.1312 0-25.6 11.4688-25.6 25.6s11.4688 25.6 25.6 25.6h122.0608v84.3264c0 14.1312 11.4688 25.6 25.6 25.6s25.6-11.4688 25.6-25.6V605.696h122.0608c14.1312 0 25.6-11.4688 25.6-25.6s-11.4688-25.6-25.6-25.6z" fill="#4E9FF7" p-id="2002" data-spm-anchor-id="a313x.collections_detail.0.i1.46183a81eJybMt" class="selected"></path></svg>