<svg 
 xmlns="http://www.w3.org/2000/svg"
 xmlns:xlink="http://www.w3.org/1999/xlink"
 width="20px" height="19px">
<path fill-rule="evenodd" opacity="0.6" fill="rgb(255, 255, 255)"
 d="M18.751,17.735 L19.334,17.735 C19.725,17.737 20.000,17.998 19.999,18.367 C19.999,18.732 19.718,19.000 19.333,19.000 L0.669,19.000 C0.319,19.000 0.054,18.788 0.008,18.475 C-0.050,18.155 0.144,17.843 0.455,17.760 C0.526,17.742 0.600,17.734 0.673,17.735 C0.859,17.733 1.043,17.735 1.250,17.735 L1.250,17.549 L1.250,1.934 C1.250,1.013 1.829,0.257 2.698,0.051 C2.849,0.015 3.007,0.002 3.161,0.002 C6.051,-0.000 8.942,-0.000 11.834,0.001 C12.937,0.001 13.749,0.831 13.749,1.954 L13.750,17.544 L13.750,17.725 L17.496,17.725 C17.498,17.680 17.500,17.635 17.501,17.589 L17.501,8.305 C17.501,7.857 17.250,7.602 16.813,7.601 C16.415,7.601 16.017,7.605 15.621,7.600 C15.276,7.596 14.999,7.310 15.003,6.960 C15.006,6.674 15.197,6.426 15.470,6.354 C15.530,6.339 15.598,6.338 15.662,6.337 L16.854,6.337 C17.886,6.321 18.735,7.157 18.751,8.203 C18.751,8.221 18.751,8.240 18.751,8.259 L18.751,17.735 ZM2.498,17.728 L12.493,17.728 C12.496,17.678 12.500,17.635 12.500,17.593 C12.502,12.382 12.502,7.174 12.500,1.966 C12.500,1.528 12.245,1.269 11.817,1.269 L3.172,1.271 C3.103,1.268 3.034,1.275 2.967,1.291 C2.661,1.368 2.498,1.612 2.498,1.982 L2.498,17.728 L2.498,17.728 ZM7.502,5.570 C6.889,5.570 6.276,5.574 5.663,5.569 C5.320,5.567 5.070,5.251 5.012,4.772 C4.937,4.129 5.224,3.573 5.641,3.570 C6.302,3.564 6.963,3.568 7.624,3.568 C8.202,3.568 8.781,3.565 9.360,3.569 C9.639,3.572 9.871,3.833 9.961,4.230 C10.050,4.625 9.975,5.068 9.775,5.340 C9.667,5.495 9.489,5.582 9.303,5.573 C8.702,5.568 8.103,5.570 7.502,5.570 ZM7.502,10.499 C6.890,10.498 6.276,10.502 5.663,10.498 C5.320,10.494 5.070,10.180 5.012,9.701 C4.937,9.058 5.224,8.502 5.641,8.498 C6.302,8.493 6.963,8.497 7.624,8.497 C8.202,8.497 8.781,8.494 9.360,8.498 C9.639,8.499 9.871,8.761 9.961,9.156 C10.050,9.551 9.974,9.996 9.775,10.268 C9.668,10.423 9.489,10.511 9.303,10.500 C8.702,10.497 8.103,10.499 7.502,10.499 L7.502,10.499 ZM7.502,15.427 C6.889,15.427 6.276,15.430 5.663,15.425 C5.320,15.423 5.070,15.108 5.012,14.629 C4.935,13.986 5.223,13.429 5.640,13.427 C6.301,13.419 6.962,13.424 7.623,13.424 C8.201,13.424 8.780,13.420 9.358,13.426 C9.638,13.428 9.870,13.688 9.959,14.086 C10.048,14.481 9.973,14.923 9.772,15.195 C9.666,15.351 9.488,15.440 9.302,15.429 C8.702,15.424 8.103,15.427 7.502,15.427 L7.502,15.427 Z"/>
</svg>
