<?xml version="1.0" standalone="no"?><!DOCTYPE svg PUBLIC "-//W3C//DTD SVG 1.1//EN" "http://www.w3.org/Graphics/SVG/1.1/DTD/svg11.dtd"><svg t="1703053416425" class="icon" viewBox="0 0 1024 1024" version="1.1" xmlns="http://www.w3.org/2000/svg" p-id="16705" data-spm-anchor-id="a313x.search_index.0.i20.54633a81M9rOWm" width="16" height="16" xmlns:xlink="http://www.w3.org/1999/xlink"><path d="M879.0016 918.3744h-153.7024c-14.1312 0-25.6-11.4688-25.6-25.6V352.6656c0-14.1312 11.4688-25.6 25.6-25.6h153.7024c14.1312 0 25.6 11.4688 25.6 25.6v540.1088c0 14.1312-11.4688 25.6-25.6 25.6z m-128.1024-51.2h102.5024V378.2656h-102.5024v488.9088zM588.8512 918.3744H435.1488c-14.1312 0-25.6-11.4688-25.6-25.6V464.4352c0-14.1312 11.4688-25.6 25.6-25.6h153.7024c14.1312 0 25.6 11.4688 25.6 25.6v428.3392c0 14.1312-11.4688 25.6-25.6 25.6z m-128.1024-51.2h102.5024V490.0352H460.7488v377.1392zM298.7008 918.3744H144.9984c-14.1312 0-25.6-11.4688-25.6-25.6v-323.7376c0-14.1312 11.4688-25.6 25.6-25.6h153.7024c14.1312 0 25.6 11.4688 25.6 25.6v323.7376c0 14.1312-11.4176 25.6-25.6 25.6z m-128.1024-51.2h102.5024v-272.5376H170.5984v272.5376z" fill="#4E9FF7" p-id="16706" data-spm-anchor-id="a313x.search_index.0.i17.54633a81M9rOWm" class=""></path><path d="M144.9984 433.9712a25.58976 25.58976 0 0 1-13.5168-47.36l276.224-170.752c7.2704-4.5056 16.2816-5.0688 24.064-1.536l130.9184 59.392 170.8032-116.8896h-35.584c-14.1312 0-25.6-11.4688-25.6-25.6s11.4688-25.6 25.6-25.6h118.3232c11.2128 0 21.1456 7.3216 24.4736 18.0224 3.328 10.7008-0.7168 22.3744-9.984 28.672L579.7376 324.096c-7.3728 5.0688-16.896 5.888-25.0368 2.2016l-131.584-59.7504-264.6528 163.584c-4.1984 2.6112-8.8576 3.84-13.4656 3.84z" fill="#ffa500" p-id="16707" data-spm-anchor-id="a313x.search_index.0.i16.54633a81M9rOWm" class="selected"></path></svg>