<svg 
 xmlns="http://www.w3.org/2000/svg"
 xmlns:xlink="http://www.w3.org/1999/xlink"
 width="20px" height="19px">
<path fill-rule="evenodd"  opacity="0.6" fill="rgb(255, 255, 255)"
 d="M17.056,18.999 L2.944,18.999 C2.817,18.999 2.691,18.992 2.565,18.977 C0.952,18.783 -0.185,17.421 0.025,15.935 L0.408,13.221 C0.599,11.869 1.848,10.857 3.327,10.857 L16.673,10.857 C18.152,10.857 19.402,11.869 19.592,13.221 L19.975,15.935 C19.992,16.051 20.000,16.168 20.000,16.285 C20.000,17.784 18.682,18.999 17.056,18.999 ZM18.133,13.396 C18.037,12.720 17.413,12.214 16.673,12.214 L3.327,12.214 C2.587,12.214 1.963,12.720 1.867,13.396 L1.485,16.110 C1.476,16.168 1.472,16.227 1.472,16.285 C1.472,17.035 2.131,17.642 2.944,17.642 L17.056,17.642 C17.119,17.642 17.183,17.639 17.245,17.631 C18.052,17.534 18.620,16.853 18.515,16.110 L18.133,13.396 ZM10.000,16.285 C9.509,16.285 9.264,16.059 9.264,15.607 L9.264,13.571 C9.264,13.119 9.509,12.892 10.000,12.892 C10.491,12.892 10.736,13.119 10.736,13.571 L10.736,15.607 C10.736,16.059 10.491,16.285 10.000,16.285 ZM9.667,10.178 C6.902,10.178 4.660,7.900 4.660,5.089 C4.660,2.278 6.902,-0.000 9.667,-0.000 C12.432,-0.000 14.673,2.278 14.673,5.089 C14.673,7.900 12.432,10.178 9.667,10.178 ZM9.667,1.454 C7.692,1.454 6.090,3.081 6.090,5.089 C6.090,7.097 7.692,8.724 9.667,8.724 C11.642,8.724 13.243,7.097 13.243,5.089 C13.243,3.081 11.642,1.454 9.667,1.454 Z"/>
</svg>
