<svg 
 xmlns="http://www.w3.org/2000/svg"
 xmlns:xlink="http://www.w3.org/1999/xlink"
 width="14px" height="14px">
<path fill-rule="evenodd"  fill="rgb(17, 83, 184)"
 d="M8.767,14.000 C8.540,14.000 8.313,13.928 8.117,13.789 L3.090,10.188 L1.131,10.188 C0.506,10.188 -0.000,9.667 -0.000,9.029 L-0.000,4.970 C-0.000,4.330 0.508,3.811 1.131,3.811 L3.088,3.811 L3.363,3.627 L8.117,0.210 C8.464,-0.039 8.914,-0.070 9.289,0.130 C9.665,0.331 9.898,0.725 9.898,1.158 L9.898,12.839 C9.898,13.272 9.665,13.668 9.289,13.867 C9.124,13.956 8.945,14.000 8.767,14.000 L8.767,14.000 ZM1.131,4.970 L1.131,9.027 L3.257,9.027 C3.365,9.027 3.474,9.059 3.565,9.120 L3.984,9.401 L8.767,12.839 L8.767,1.158 L3.999,4.587 L3.567,4.877 C3.476,4.938 3.367,4.972 3.257,4.972 L1.131,4.972 L1.131,4.970 Z"/>
<path fill-rule="evenodd"  fill="rgb(247, 117, 78)"
 d="M13.050,10.790 L11.839,10.039 C12.320,9.224 12.586,8.166 12.586,7.059 C12.586,5.898 12.299,4.803 11.775,3.974 L12.962,3.187 C13.631,4.247 14.000,5.622 14.000,7.059 C14.000,8.429 13.662,9.752 13.050,10.790 L13.050,10.790 Z"/>
</svg>
