<svg 
 xmlns="http://www.w3.org/2000/svg"
 xmlns:xlink="http://www.w3.org/1999/xlink"
 width="20px" height="19px">
<path fill-rule="evenodd"  opacity="0.6" fill="rgb(255, 255, 255)"
 d="M18.204,15.880 L1.795,15.880 C0.805,15.880 0.000,15.064 0.000,14.061 L0.000,1.818 C0.000,0.815 0.805,-0.001 1.795,-0.001 L18.202,-0.001 C19.192,-0.001 19.997,0.815 19.999,1.818 L19.999,14.061 C19.999,15.064 19.194,15.880 18.204,15.880 ZM18.461,12.716 L18.461,1.908 C18.461,1.716 18.346,1.558 18.204,1.558 L1.795,1.558 C1.654,1.558 1.538,1.716 1.538,1.908 L1.538,14.058 C1.538,14.202 1.654,14.319 1.795,14.319 L18.202,14.319 C18.343,14.319 18.459,14.202 18.459,14.058 L18.461,14.058 L18.461,12.716 ZM15.164,8.421 L15.152,8.421 C14.733,8.421 14.390,8.079 14.383,7.653 L14.366,6.674 L10.979,10.106 C10.835,10.252 10.640,10.334 10.436,10.334 C10.232,10.334 10.037,10.252 9.893,10.106 L8.102,8.291 L5.144,11.289 C4.995,11.443 4.797,11.518 4.600,11.518 C4.403,11.518 4.206,11.440 4.057,11.289 C3.757,10.985 3.757,10.491 4.057,10.186 L7.564,6.635 C7.708,6.489 7.903,6.406 8.107,6.406 C8.311,6.406 8.506,6.489 8.650,6.635 L10.441,8.452 L13.255,5.590 L12.123,5.590 C11.698,5.590 11.354,5.242 11.354,4.811 C11.354,4.380 11.698,4.032 12.123,4.032 L15.120,4.032 L15.154,4.032 C15.161,4.034 15.166,4.034 15.173,4.034 C15.178,4.037 15.185,4.037 15.190,4.037 C15.197,4.037 15.207,4.039 15.214,4.039 C15.217,4.042 15.221,4.042 15.226,4.042 C15.236,4.044 15.245,4.044 15.253,4.046 C15.257,4.046 15.260,4.049 15.265,4.049 C15.272,4.049 15.281,4.051 15.289,4.054 C15.293,4.054 15.296,4.056 15.301,4.056 C15.308,4.059 15.318,4.061 15.325,4.063 C15.327,4.063 15.332,4.063 15.337,4.066 L15.358,4.073 C15.363,4.076 15.368,4.076 15.373,4.078 C15.380,4.081 15.385,4.083 15.392,4.085 C15.397,4.088 15.404,4.090 15.409,4.093 L15.423,4.100 C15.430,4.105 15.435,4.107 15.442,4.110 C15.447,4.110 15.450,4.112 15.455,4.114 C15.462,4.119 15.469,4.122 15.476,4.127 C15.479,4.129 15.481,4.129 15.483,4.132 C15.491,4.137 15.500,4.141 15.507,4.146 C15.510,4.146 15.510,4.149 15.512,4.149 C15.546,4.171 15.582,4.195 15.613,4.224 C15.616,4.229 15.620,4.232 15.625,4.236 L15.637,4.248 C15.644,4.254 15.649,4.258 15.654,4.263 L15.656,4.266 L15.666,4.275 L15.680,4.290 C15.685,4.295 15.688,4.300 15.692,4.304 C15.697,4.309 15.700,4.314 15.704,4.319 C15.707,4.324 15.712,4.331 15.716,4.336 C15.719,4.341 15.724,4.344 15.726,4.348 C15.731,4.356 15.736,4.361 15.740,4.368 C15.743,4.373 15.745,4.375 15.748,4.380 C15.750,4.385 15.755,4.392 15.760,4.399 C15.762,4.404 15.765,4.407 15.767,4.412 C15.772,4.417 15.774,4.424 15.779,4.431 C15.781,4.436 15.784,4.439 15.786,4.443 C15.789,4.448 15.793,4.456 15.796,4.463 L15.803,4.477 C15.808,4.485 15.810,4.490 15.813,4.497 L15.820,4.511 C15.822,4.519 15.825,4.524 15.827,4.531 C15.829,4.536 15.832,4.543 15.834,4.548 C15.834,4.553 15.837,4.560 15.839,4.565 C15.841,4.572 15.844,4.577 15.846,4.585 C15.849,4.592 15.849,4.597 15.851,4.602 C15.851,4.609 15.853,4.616 15.856,4.624 C15.858,4.628 15.861,4.633 15.861,4.638 C15.863,4.646 15.863,4.653 15.865,4.660 C15.865,4.667 15.868,4.672 15.868,4.677 C15.868,4.685 15.870,4.692 15.870,4.699 C15.870,4.704 15.873,4.711 15.873,4.716 C15.873,4.724 15.875,4.728 15.875,4.736 C15.877,4.743 15.877,4.748 15.877,4.755 C15.880,4.763 15.880,4.767 15.880,4.775 L15.880,4.797 L15.880,4.809 L15.921,7.629 C15.928,8.060 15.589,8.413 15.164,8.421 ZM5.579,17.441 L14.423,17.441 C14.849,17.441 15.193,17.789 15.193,18.220 C15.193,18.651 14.849,18.999 14.423,18.999 L5.579,18.999 C5.153,18.999 4.810,18.651 4.810,18.220 C4.810,17.789 5.153,17.441 5.579,17.441 Z"/>
</svg>
