<svg 
 xmlns="http://www.w3.org/2000/svg"
 xmlns:xlink="http://www.w3.org/1999/xlink"
 width="20px" height="20px">
<path fill-rule="evenodd"  opacity="0.6" fill="rgb(255, 255, 255)"
 d="M10.565,5.002 L13.051,7.399 C13.325,7.664 13.325,8.093 13.051,8.358 L10.565,10.757 C10.290,11.021 9.845,11.021 9.571,10.757 L7.085,8.358 C6.811,8.093 6.811,7.664 7.085,7.399 L9.571,5.002 C9.845,4.737 10.290,4.737 10.565,5.002 ZM10.067,9.316 L10.067,9.317 L11.559,7.879 L10.067,6.440 L8.577,7.879 L10.067,9.316 ZM19.257,20.000 L8.177,20.000 C5.091,20.000 1.246,16.135 0.257,13.629 C-0.278,12.267 0.113,11.550 0.536,11.187 C0.874,10.897 1.277,10.744 1.702,10.744 C2.845,10.744 3.894,11.820 5.007,12.960 C5.787,13.759 6.672,14.666 7.395,14.935 C8.823,15.458 10.337,15.727 11.864,15.729 C11.418,15.183 11.043,14.686 10.943,14.448 C10.781,14.059 10.852,13.589 11.131,13.192 C11.465,12.715 12.016,12.458 12.592,12.545 C12.927,12.595 13.772,12.874 14.765,13.230 C14.783,13.213 14.790,13.191 14.808,13.174 C16.235,11.896 17.042,10.102 17.035,8.224 C17.030,4.473 13.877,1.433 9.987,1.430 C9.686,1.430 9.385,1.449 9.086,1.487 C5.223,1.972 2.499,5.385 3.002,9.110 C3.055,9.502 2.770,9.861 2.363,9.913 C1.957,9.964 1.585,9.688 1.532,9.296 C1.485,8.947 1.461,8.587 1.461,8.224 C1.461,3.690 5.287,-0.000 9.987,-0.000 C14.691,-0.000 18.517,3.690 18.517,8.224 C18.510,10.284 17.704,12.266 16.256,13.781 C17.679,14.315 19.065,14.861 19.538,15.048 L19.540,15.048 C19.818,15.158 20.000,15.420 19.998,15.710 L19.998,19.285 C19.998,19.680 19.667,20.000 19.257,20.000 ZM18.515,16.191 C16.132,15.255 12.897,14.038 12.367,13.959 C12.372,13.962 12.366,13.972 12.360,13.986 C12.562,14.288 13.293,15.175 13.919,15.892 C14.005,15.990 14.061,16.108 14.083,16.234 C14.151,16.623 13.879,16.992 13.476,17.058 C13.451,17.062 12.843,17.160 11.884,17.160 C10.168,17.160 8.466,16.859 6.862,16.270 C5.824,15.883 4.859,14.895 3.927,13.939 C3.200,13.196 2.205,12.175 1.703,12.175 C1.673,12.175 1.617,12.175 1.521,12.258 C1.489,12.284 1.410,12.525 1.646,13.120 C2.453,15.171 5.916,18.570 8.178,18.570 L18.515,18.570 L18.515,16.191 Z"/>
</svg>
