<svg 
 xmlns="http://www.w3.org/2000/svg"
 xmlns:xlink="http://www.w3.org/1999/xlink"
 width="18px" height="20px">
<path fill-rule="evenodd"  opacity="0.6" fill="rgb(255, 255, 255)"
 d="M9.922,0.257 L17.003,4.335 C17.602,4.683 18.000,5.330 18.000,5.926 L18.000,14.133 C18.000,14.828 17.652,15.475 17.003,15.724 L9.922,19.802 C9.623,19.950 9.374,20.000 9.025,20.000 C8.676,20.000 8.427,19.900 8.027,19.752 L0.997,15.722 C0.398,15.377 -0.000,14.731 -0.000,14.134 L-0.000,5.926 C-0.000,5.229 0.349,4.582 0.997,4.335 L8.077,0.257 C8.626,-0.092 9.424,-0.092 9.922,0.257 ZM1.899,5.693 L1.698,5.789 C1.664,5.801 1.619,5.877 1.619,6.046 L1.621,14.073 C1.621,14.144 1.737,14.330 1.899,14.425 L8.503,18.192 L8.747,18.279 L8.826,18.302 L8.889,18.309 L8.960,18.309 L9.069,18.302 L15.922,14.427 L16.124,14.330 C16.158,14.317 16.202,14.243 16.202,14.073 L16.202,6.046 C16.202,5.974 16.088,5.789 15.922,5.693 L9.069,1.866 L8.965,1.799 C8.858,1.788 8.750,1.811 8.657,1.866 L1.899,5.693 L1.899,5.693 ZM8.926,8.691 L13.032,6.530 C13.502,6.282 14.085,6.460 14.334,6.928 C14.341,6.941 14.347,6.953 14.353,6.966 C14.596,7.475 14.403,8.085 13.910,8.363 L9.752,10.710 L9.752,15.347 C9.752,15.841 9.349,16.242 8.852,16.242 C8.355,16.242 7.952,15.841 7.952,15.347 L7.952,10.629 L3.981,8.303 C3.469,8.002 3.283,7.357 3.557,6.832 C3.815,6.337 4.428,6.144 4.926,6.401 C4.939,6.408 4.952,6.415 4.965,6.422 L8.926,8.691 L8.926,8.691 Z"/>
</svg>
