<svg 
 xmlns="http://www.w3.org/2000/svg"
 xmlns:xlink="http://www.w3.org/1999/xlink"
 width="23px" height="24px">
<defs>
<linearGradient id="PSgrad_0" x1="0%" x2="0%" y1="0%" y2="100%">
  <stop offset="0%" stop-color="rgb(247,209,192)" stop-opacity="1" />
  <stop offset="100%" stop-color="rgb(201,111,80)" stop-opacity="1" />
</linearGradient>
<linearGradient id="PSgrad_1" x1="70.711%" x2="0%" y1="0%" y2="70.711%">
  <stop offset="0%" stop-color="rgb(247,209,192)" stop-opacity="1" />
  <stop offset="100%" stop-color="rgb(201,111,80)" stop-opacity="1" />
</linearGradient>

</defs>
<path fill-rule="evenodd"  fill="rgb(205, 119, 88)"
 d="M9.125,20.100 L13.872,20.100 C14.017,20.100 14.136,20.217 14.136,20.360 L14.136,21.400 L8.862,21.400 L8.862,20.360 C8.862,20.217 8.980,20.100 9.125,20.100 L9.125,20.100 Z"/>
<path fill-rule="evenodd"  fill="rgb(182, 206, 255)"
 d="M7.543,21.400 L15.455,21.400 C16.183,21.400 16.773,21.982 16.773,22.700 L16.773,22.700 L16.773,24.000 L6.225,24.000 L6.225,22.700 C6.225,21.982 6.815,21.400 7.543,21.400 L7.543,21.400 Z"/>
<path fill="url(#PSgrad_0)"
 d="M7.543,21.400 L15.455,21.400 C16.183,21.400 16.773,21.982 16.773,22.700 L16.773,22.700 L16.773,24.000 L6.225,24.000 L6.225,22.700 C6.225,21.982 6.815,21.400 7.543,21.400 L7.543,21.400 Z"/>
<path fill-rule="evenodd"  fill="rgb(242, 197, 177)"
 d="M-0.001,3.900 L6.225,3.900 L6.225,7.800 C6.225,9.236 5.044,10.400 3.588,10.400 C2.131,10.400 1.288,9.237 0.950,7.801 C0.950,7.800 0.950,7.800 0.950,7.800 L-0.001,3.900 ZM16.773,3.900 L22.999,3.900 L22.048,7.800 C21.741,9.110 20.867,10.400 19.410,10.400 C17.954,10.400 16.773,9.236 16.773,7.800 L16.773,3.900 Z"/>
<path fill-rule="evenodd"  fill="rgb(234, 178, 153)"
 d="M10.180,16.200 L12.818,16.200 L12.818,20.100 L10.180,20.100 L10.180,16.200 Z"/>
<path fill-rule="evenodd"  fill="rgb(182, 206, 255)"
 d="M4.906,0.000 L18.092,0.000 C18.820,0.000 19.410,0.582 19.410,1.300 L19.410,1.300 L19.410,9.700 C19.410,14.008 15.868,17.500 11.499,17.500 C7.130,17.500 3.587,14.008 3.587,9.700 L3.587,1.300 C3.587,0.582 4.178,0.000 4.906,0.000 Z"/>
<path fill="url(#PSgrad_1)"
 d="M4.906,0.000 L18.092,0.000 C18.820,0.000 19.410,0.582 19.410,1.300 L19.410,1.300 L19.410,9.700 C19.410,14.008 15.868,17.500 11.499,17.500 C7.130,17.500 3.587,14.008 3.587,9.700 L3.587,1.300 C3.587,0.582 4.178,0.000 4.906,0.000 Z"/>
<text kerning="auto" font-family="Adobe Heiti Std" fill="rgb(0, 0, 0)" font-size="14px" x="8px" y="13px"><tspan font-size="14px" font-family="Arial" font-weight="bold" fill="#FFFFFF">&#51;</tspan></text>
</svg>
