<?xml version="1.0" standalone="no"?><!DOCTYPE svg PUBLIC "-//W3C//DTD SVG 1.1//EN" "http://www.w3.org/Graphics/SVG/1.1/DTD/svg11.dtd"><svg t="1703581284332" class="icon" viewBox="0 0 1024 1024" version="1.1" xmlns="http://www.w3.org/2000/svg" p-id="39949" data-spm-anchor-id="a313x.search_index.0.i9.197f3a81eWsHqd" xmlns:xlink="http://www.w3.org/1999/xlink" width="16" height="16"><path d="M427.4176 457.5744H156.8256c-11.3152 0-20.48-9.1648-20.48-20.48V166.5024c0-11.3152 9.1648-20.48 20.48-20.48h270.6432c11.3152 0 20.48 9.1648 20.48 20.48v270.6432c-0.0512 11.264-9.216 20.4288-20.5312 20.4288zM877.4144 896.0512h-270.6432c-11.3152 0-20.48-9.1648-20.48-20.48v-270.6432c0-11.3152 9.1648-20.48 20.48-20.48h270.6432c11.3152 0 20.48 9.1648 20.48 20.48v270.6432c0 11.3152-9.1648 20.48-20.48 20.48z" fill="#DCEDFF" p-id="39950"></path><path d="M427.4176 483.1744H156.8256c-25.3952 0-46.08-20.6848-46.08-46.08V166.5024c0-25.3952 20.6848-46.08 46.08-46.08h270.6432c25.3952 0 46.08 20.6848 46.08 46.08v270.6432c-0.0512 25.344-20.736 46.0288-46.1312 46.0288z m-265.472-51.2h260.4032V171.6224H161.9456v260.352zM877.4144 483.1744h-270.6432c-25.3952 0-46.08-20.6848-46.08-46.08V166.5024c0-25.3952 20.6848-46.08 46.08-46.08h270.6432c25.3952 0 46.08 20.6848 46.08 46.08v270.6432c0 25.344-20.6336 46.0288-46.08 46.0288z m-265.472-51.2h260.4032V171.6224h-260.4032v260.352zM427.4176 921.6512H156.8256c-25.3952 0-46.08-20.6848-46.08-46.08v-270.6432c0-25.3952 20.6848-46.08 46.08-46.08h270.6432c25.3952 0 46.08 20.6848 46.08 46.08v270.6432c-0.0512 25.3952-20.736 46.08-46.1312 46.08z m-265.472-51.2h260.4032v-260.4032H161.9456v260.4032zM877.4144 921.6512h-270.6432c-25.3952 0-46.08-20.6848-46.08-46.08v-270.6432c0-25.3952 20.6848-46.08 46.08-46.08h270.6432c25.3952 0 46.08 20.6848 46.08 46.08v270.6432c0 25.3952-20.6336 46.08-46.08 46.08z m-265.472-51.2h260.4032v-260.4032h-260.4032v260.4032z" fill="#4E9FF7" p-id="39951" data-spm-anchor-id="a313x.search_index.0.i10.197f3a81eWsHqd" class="selected"></path></svg>