<?xml version="1.0" standalone="no"?><!DOCTYPE svg PUBLIC "-//W3C//DTD SVG 1.1//EN" "http://www.w3.org/Graphics/SVG/1.1/DTD/svg11.dtd"><svg t="1703581433367" class="icon" viewBox="0 0 1024 1024" version="1.1" xmlns="http://www.w3.org/2000/svg" p-id="1517" xmlns:xlink="http://www.w3.org/1999/xlink" width="16" height="16"><path d="M141.1584 681.4208l319.4368-305.4592 107.8784 115.712 323.6864-312.832v547.5328H141.1584z" fill="#DCEDFF" p-id="1518"></path><path d="M874.1376 758.4256H149.0432c-25.3952 0-46.08-20.6848-46.08-46.08V188.5696c0-25.3952 20.6848-46.08 46.08-46.08h725.0944c25.3952 0 46.08 20.6848 46.08 46.08v523.776c0 25.3952-20.6848 46.08-46.08 46.08z m-719.9744-51.2h714.8544V193.6896H154.1632v513.536zM269.7728 830.1056h478.464v51.2H269.7728z" fill="#4E9FF7" p-id="1519" data-spm-anchor-id="a313x.collections_detail.0.i2.f9d93a81lOhQiv" class="selected"></path><path d="M329.472 539.392l-35.7376-36.6592 149.0432-145.1008c4.9152-4.8128 11.4176-7.424 18.4832-7.2704 6.8608 0.1536 13.4144 3.1232 18.1248 8.1408l89.9072 96.4608 116.5312-114.8416 35.9424 36.4544-135.2704 133.3248c-4.9152 4.864-11.6224 7.5776-18.5344 7.3728-6.912-0.1536-13.4656-3.072-18.176-8.1408L459.7248 412.5696l-130.2528 126.8224z" fill="#4E9FF7" p-id="1520" data-spm-anchor-id="a313x.collections_detail.0.i3.f9d93a81lOhQiv" class="selected"></path></svg>