<?xml version="1.0" standalone="no"?><!DOCTYPE svg PUBLIC "-//W3C//DTD SVG 1.1//EN" "http://www.w3.org/Graphics/SVG/1.1/DTD/svg11.dtd"><svg t="1703581370605" class="icon" viewBox="0 0 1024 1024" version="1.1" xmlns="http://www.w3.org/2000/svg" p-id="1236" xmlns:xlink="http://www.w3.org/1999/xlink" width="16" height="16"><path d="M621.7728 390.4512H414.5152c-11.3152 0-20.48-9.1648-20.48-20.48V162.7136c0-11.3152 9.1648-20.48 20.48-20.48h207.2576c11.3152 0 20.48 9.1648 20.48 20.48v207.2576c0 11.3152-9.216 20.48-20.48 20.48z" fill="#DCEDFF" p-id="1237"></path><path d="M890.9824 597.0432h-78.0288V509.5424c0-14.1312-11.4688-25.6-25.6-25.6h-245.4016V416.0512h79.7696c25.3952 0 46.08-20.6848 46.08-46.08V162.7136c0-25.3952-20.6848-46.08-46.08-46.08H414.5152c-25.3952 0-46.08 20.6848-46.08 46.08v207.2576c0 25.3952 20.6848 46.08 46.08 46.08h76.288v67.8912H246.8864c-14.1312 0-25.6 11.4688-25.6 25.6v87.5008H143.2576c-25.3952 0-46.08 20.6848-46.08 46.08v207.2576c0 25.3952 20.6848 46.08 46.08 46.08h207.2576c25.3952 0 46.08-20.6848 46.08-46.08v-207.2576c0-25.3952-20.6848-46.08-46.08-46.08H272.4864v-61.9008h489.2672v61.9008h-78.0288c-25.3952 0-46.08 20.6848-46.08 46.08v207.2576c0 25.3952 20.6848 46.08 46.08 46.08h207.2576c25.3952 0 46.08-20.6848 46.08-46.08v-207.2576c0-25.3952-20.6848-46.08-46.08-46.08zM419.6352 167.8336h197.0176v197.0176H419.6352V167.8336z m-74.24 677.4272H148.3776v-197.0176h197.0176v197.0176z m540.4672 0h-197.0176v-197.0176h197.0176v197.0176z" fill="#4E9FF7" p-id="1238" data-spm-anchor-id="a313x.collections_detail.0.i0.f9d93a81lOhQiv" class="selected"></path></svg>