<svg 
 xmlns="http://www.w3.org/2000/svg"
 xmlns:xlink="http://www.w3.org/1999/xlink"
 width="30px" height="32px">
<path fill-rule="evenodd"  opacity="0.502" fill="rgb(24, 109, 245)"
 d="M29.999,28.358 L29.999,18.534 C29.995,17.773 29.340,17.160 28.536,17.164 C28.534,17.164 28.532,17.164 28.530,17.164 L18.114,12.937 C17.311,12.930 16.653,13.541 16.645,14.302 C16.645,14.304 16.645,14.306 16.645,14.308 L16.645,30.358 L16.642,32.000 L27.884,31.997 C27.884,31.997 30.000,31.678 29.996,29.603 C29.994,28.969 29.999,28.358 29.999,28.358 Z"/>
<path fill-rule="evenodd"  fill="rgb(24, 109, 245)"
 d="M2.107,31.996 C2.107,31.996 -0.036,31.256 -0.007,29.423 C0.003,28.835 -0.011,28.305 -0.011,28.305 L-0.011,6.900 C-0.004,5.651 1.054,4.644 2.353,4.651 C2.356,4.651 2.359,4.651 2.363,4.651 L17.084,-0.003 C18.383,-0.015 19.446,0.988 19.458,2.237 C19.458,2.240 19.458,2.243 19.458,2.246 L19.458,28.305 L19.462,32.000 L2.107,31.996 ZM13.743,11.330 L6.063,11.330 L6.063,16.034 L13.743,16.034 L13.743,11.330 ZM13.743,18.395 L6.104,18.395 L6.104,22.834 L13.743,22.834 L13.743,18.400 L13.743,18.395 Z"/>
</svg>
