<svg 
 xmlns="http://www.w3.org/2000/svg"
 xmlns:xlink="http://www.w3.org/1999/xlink"
 width="18px" height="20px">
<path fill-rule="evenodd"  opacity="0.502" fill="rgb(24, 109, 245)"
 d="M17.999,17.724 L17.999,11.584 C17.997,11.108 17.604,10.725 17.121,10.727 C17.120,10.727 17.119,10.727 17.118,10.727 L10.869,8.086 C10.386,8.082 9.992,8.463 9.987,8.939 C9.987,8.940 9.987,8.941 9.987,8.942 L9.987,18.974 L9.986,20.000 L16.731,19.998 C16.731,19.998 18.000,19.799 17.997,18.502 C17.996,18.106 17.999,17.724 17.999,17.724 Z"/>
<path fill-rule="evenodd"  fill="rgb(24, 109, 245)"
 d="M1.265,19.997 C1.265,19.997 -0.022,19.535 -0.004,18.390 C0.002,18.022 -0.006,17.691 -0.006,17.691 L-0.006,4.313 C-0.002,3.532 0.633,2.903 1.412,2.907 C1.414,2.907 1.416,2.907 1.418,2.907 L10.250,-0.002 C11.030,-0.009 11.667,0.618 11.675,1.398 C11.675,1.400 11.675,1.402 11.675,1.404 L11.675,17.691 L11.677,20.000 L1.265,19.997 ZM8.246,7.081 L3.638,7.081 L3.638,10.021 L8.246,10.021 L8.246,7.081 ZM8.246,11.497 L3.662,11.497 L3.662,14.272 L8.246,14.272 L8.246,11.500 L8.246,11.497 Z"/>
</svg>
