<svg 
 xmlns="http://www.w3.org/2000/svg"
 xmlns:xlink="http://www.w3.org/1999/xlink"
 width="42px" height="42px">
<path fill-rule="evenodd"  fill="rgb(165, 167, 175)"
 d="M8.188,41.977 L6.850,41.977 L-0.000,29.891 L4.244,27.403 L5.328,26.770 L14.807,21.208 L15.476,20.809 L30.419,12.024 C29.308,11.682 28.152,11.504 26.985,11.504 C24.984,11.504 22.955,12.026 21.081,13.135 C18.105,14.895 16.168,17.688 15.453,20.809 L14.784,21.208 C15.476,17.688 17.529,14.520 20.804,12.595 C22.758,11.447 24.876,10.900 26.968,10.900 C28.373,10.900 29.766,11.147 31.089,11.624 L31.114,11.610 L40.593,6.048 L41.677,5.414 L42.000,5.226 L42.000,6.588 L1.568,30.313 L8.188,41.977 ZM27.885,5.250 L28.946,3.537 L29.638,5.438 L31.575,5.930 L30.007,7.198 L30.145,9.216 L28.461,8.090 L26.616,8.840 L27.147,6.893 L25.878,5.344 L27.885,5.250 ZM19.143,10.108 L18.082,11.821 L17.413,9.920 L15.476,9.427 L17.021,8.183 L16.906,6.165 L18.567,7.292 L20.412,6.541 L19.858,8.488 L21.127,10.037 L19.143,10.108 ZM10.609,15.411 L11.694,13.698 L12.362,15.599 L14.277,16.092 L12.731,17.336 L12.847,19.354 L11.209,18.227 L9.341,18.978 L9.894,17.031 L8.626,15.482 L10.609,15.411 ZM26.946,1.191 C23.234,1.191 19.473,2.151 16.030,4.170 C8.026,8.864 4.059,17.946 5.305,26.723 L4.221,27.356 C2.698,17.969 6.896,8.183 15.453,3.138 C19.076,1.011 23.038,-0.000 26.950,-0.000 C32.278,-0.000 37.515,1.876 41.677,5.367 L40.593,6.001 C36.691,2.872 31.861,1.191 26.946,1.191 ZM41.954,24.212 L39.163,25.854 L39.133,25.873 C38.501,29.353 36.452,32.527 33.189,34.443 C31.235,35.591 29.117,36.138 27.026,36.138 C25.620,36.138 24.227,35.891 22.904,35.414 L22.880,35.429 L13.407,40.987 C13.828,41.324 14.249,41.660 14.692,41.953 L12.731,41.953 C12.628,41.847 12.468,41.723 12.336,41.613 L12.316,41.625 L11.694,42.000 L9.387,41.977 L41.954,22.851 L41.954,24.212 ZM23.575,35.015 C24.689,35.358 25.849,35.536 27.019,35.536 C29.014,35.536 31.034,35.019 32.890,33.927 C35.828,32.199 37.762,29.377 38.462,26.272 L23.575,35.015 ZM23.572,38.245 L25.232,39.371 L27.077,38.621 L26.547,40.568 L27.723,41.977 L23.964,41.977 L22.142,41.531 L23.710,40.263 L23.572,38.245 ZM34.573,37.353 L35.634,35.640 L36.303,37.541 L38.241,38.034 L36.695,39.278 L36.811,41.296 L35.150,40.170 L33.305,40.921 L33.858,38.973 L32.590,37.424 L34.573,37.353 ZM41.954,41.273 C41.723,41.507 41.446,41.718 41.193,41.930 L39.232,41.930 C40.224,41.273 41.124,40.522 41.954,39.677 L41.954,41.273 ZM39.417,31.393 L40.962,30.149 L40.847,28.131 L42.000,28.882 L41.977,33.669 L41.331,31.886 L39.417,31.393 Z"/>
<text kerning="auto" font-family="Adobe Heiti Std" fill="rgb(0, 0, 0)" transform="matrix( 0.21502607568528, -0.12148099203213, 0.12103315748234, 0.21564854140655,7.64975663472342, 37.2936123014416)" font-size="40.438px"><tspan font-size="40.438px" font-family="SJxinhei" fill="#A5A7AF">&#38750;&#20132;&#26131;&#26085;</tspan></text>
</svg>
