<svg 
 xmlns="http://www.w3.org/2000/svg"
 xmlns:xlink="http://www.w3.org/1999/xlink"
 width="14px" height="14px">
<path fill-rule="evenodd"  fill=""
 d="M13.263,-0.000 L0.736,-0.000 C0.331,-0.000 -0.001,0.331 -0.001,0.736 L-0.001,8.842 C-0.001,9.247 0.331,9.579 0.736,9.579 L13.263,9.579 C13.668,9.579 14.000,9.247 14.000,8.842 L14.000,0.736 C14.000,0.331 13.668,-0.000 13.263,-0.000 L13.263,-0.000 ZM11.973,6.226 L10.537,6.226 C10.205,6.226 9.873,6.042 9.726,5.747 L8.215,2.984 L6.668,7.663 C6.558,7.995 6.300,8.253 5.968,8.289 L5.784,8.289 C5.452,8.289 5.157,8.142 5.010,7.847 L3.757,5.821 L2.026,5.821 C1.731,5.821 1.473,5.563 1.473,5.268 C1.473,4.973 1.731,4.716 2.026,4.716 L4.052,4.716 C4.236,4.716 4.421,4.826 4.531,4.973 L5.747,6.926 L7.294,2.247 C7.405,1.915 7.663,1.658 8.031,1.584 C8.436,1.510 8.805,1.694 8.989,2.063 L10.647,5.084 L11.973,5.084 C12.268,5.084 12.526,5.342 12.526,5.637 C12.526,5.931 12.268,6.226 11.973,6.226 Z"/>
<path fill-rule="evenodd"  opacity="0.502" fill=""
 d="M13.263,10.684 L0.736,10.684 C0.331,10.684 -0.001,11.016 -0.001,11.421 L-0.001,13.263 C-0.001,13.668 0.331,14.000 0.736,14.000 L13.263,14.000 C13.668,14.000 14.000,13.668 14.000,13.263 L14.000,11.421 C14.000,11.016 13.668,10.684 13.263,10.684 L13.263,10.684 ZM6.815,12.895 L2.026,12.895 C1.731,12.895 1.473,12.637 1.473,12.342 C1.473,12.047 1.731,11.789 2.026,11.789 L6.815,11.789 C7.110,11.789 7.368,12.047 7.368,12.342 C7.368,12.637 7.110,12.895 6.815,12.895 ZM10.131,12.895 C9.837,12.895 9.579,12.637 9.579,12.342 C9.579,12.047 9.837,11.789 10.131,11.789 C10.426,11.789 10.684,12.047 10.684,12.342 C10.684,12.637 10.426,12.895 10.131,12.895 ZM11.973,12.895 C11.679,12.895 11.421,12.637 11.421,12.342 C11.421,12.047 11.679,11.789 11.973,11.789 C12.268,11.789 12.526,12.047 12.526,12.342 C12.526,12.637 12.268,12.895 11.973,12.895 Z"/>
</svg>
