<?xml version="1.0" standalone="no"?><!DOCTYPE svg PUBLIC "-//W3C//DTD SVG 1.1//EN" "http://www.w3.org/Graphics/SVG/1.1/DTD/svg11.dtd"><svg t="1732086416953" class="icon" viewBox="0 0 1024 1024" version="1.1" xmlns="http://www.w3.org/2000/svg" p-id="1529" xmlns:xlink="http://www.w3.org/1999/xlink" width="14" height="14"><path d="M691.8144 677.2736c0 13.5168 13.5168 25.8048 30.3104 25.8048h200.0896c16.896 0 30.3104-11.264 30.3104-25.8048 0-13.5168-13.5168-25.8048-30.3104-25.8048H722.1248c-16.7936 1.1264-30.3104 12.3904-30.3104 25.8048z m-346.112-374.272h202.3424c48.3328 0 86.528-79.7696 102.2976-116.8384 6.7584-14.6432 9.0112-31.4368 5.632-47.2064-4.5056-25.8048-20.2752-43.8272-71.8848-44.9536-69.632-3.3792-85.4016 47.2064-135.9872 47.2064-51.712 0-76.3904-40.448-139.3664-48.3328-44.9536-6.7584-62.976 13.5168-69.632 39.3216-4.5056 18.0224-3.3792 38.1952 4.5056 55.0912 15.4624 37.0688 54.8864 115.712 102.0928 115.712zM942.4896 752.64H742.4c-16.896 0-30.3104 11.264-30.3104 25.8048 0 13.5168 13.5168 25.8048 30.3104 25.8048h200.0896c16.896 0 30.3104-11.264 30.3104-25.8048s-13.5168-25.8048-30.3104-25.8048zM903.168 860.4672H701.952c-16.896 0-30.3104 11.264-30.3104 25.8048 0 14.6432 13.5168 25.8048 30.3104 25.8048h200.0896c16.896 0 30.3104-11.264 30.3104-25.8048s-13.5168-25.8048-29.184-25.8048z"  p-id="1530"></path><path d="M691.8144 831.2832c-22.528-4.5056-40.448-24.6784-40.448-49.4592 0-24.6784 16.896-44.9536 40.448-49.4592v-1.1264h-15.7696v-1.1264c-25.8048-5.632-44.9536-30.3104-44.9536-58.4704 0-29.184 19.1488-52.8384 44.9536-58.4704v-1.1264h129.2288c-41.5744-126.976-117.9648-267.4688-248.4224-267.4688H343.4496C109.6704 344.6784 51.2 809.8816 51.2 809.8816c0 61.8496 49.4592 122.4704 110.1824 122.4704H627.712c-9.0112-10.1376-15.7696-24.6784-15.7696-40.448 0-29.184 20.2752-52.8384 47.2064-58.4704v-1.1264c0.1024 0.1024 32.6656-1.024 32.6656-1.024zM582.7584 702.0544c14.6432 0 26.9312 12.3904 25.8048 28.0576-1.1264 13.5168-13.5168 23.552-25.8048 23.552h-104.448v67.4816c0 14.6432-11.264 25.8048-25.8048 25.8048-14.6432 0-25.8048-11.264-25.8048-25.8048V753.664H320.9216c-14.6432 0-25.8048-11.264-25.8048-25.8048s11.264-25.8048 25.8048-25.8048h105.6768v-32.5632H320.9216c-14.6432 0-25.8048-11.264-25.8048-25.8048s11.264-25.8048 25.8048-25.8048h70.7584l-73.0112-130.3552c-6.7584-12.3904-3.3792-28.0576 9.0112-34.816 12.3904-6.7584 28.0576-3.3792 34.816 9.0112l87.6544 156.2624h4.5056l87.6544-156.2624c6.7584-12.3904 22.528-16.896 34.816-9.0112 12.3904 6.7584 16.896 22.528 9.0112 34.816l-73.0112 130.3552h66.3552c14.6432 0 25.8048 11.264 25.8048 25.8048s-11.264 25.8048-25.8048 25.8048h-101.1712v32.5632h104.448z" p-id="1531"></path></svg>