<svg 
 xmlns="http://www.w3.org/2000/svg"
 xmlns:xlink="http://www.w3.org/1999/xlink"
 width="14px" height="14px">
<path fill-rule="evenodd"  opacity="0.502" fill=""
 d="M0.130,1.484 C-0.251,0.818 0.246,0.000 1.031,0.000 L12.970,0.000 C13.755,0.000 14.251,0.818 13.869,1.484 C13.869,1.484 13.083,2.857 12.061,4.643 C7.842,3.254 6.976,3.265 1.940,4.645 C0.917,2.858 0.130,1.483 0.130,1.483 L0.130,1.484 Z"/>
<path fill-rule="evenodd"  fill=""
 d="M13.171,8.000 C13.171,11.313 10.408,14.000 7.000,14.000 C3.592,14.000 0.829,11.313 0.829,8.000 C0.829,5.816 2.042,3.924 3.835,2.874 L3.178,0.638 C3.100,0.372 3.258,0.096 3.531,0.020 C3.577,0.007 3.625,0.000 3.673,0.000 L10.537,0.000 C10.821,0.000 11.051,0.224 11.051,0.500 C11.051,0.547 11.045,0.593 11.032,0.638 L10.346,2.970 C12.043,4.039 13.171,5.888 13.171,8.000 ZM9.995,6.850 L8.280,6.630 C8.194,6.619 8.119,6.566 8.082,6.490 L7.337,4.973 C7.311,4.922 7.269,4.880 7.216,4.856 C7.088,4.796 6.934,4.849 6.873,4.973 L6.873,4.973 L6.129,6.490 C6.091,6.566 6.017,6.619 5.930,6.630 L4.216,6.850 C4.158,6.858 4.104,6.884 4.064,6.926 C3.966,7.026 3.970,7.184 4.073,7.279 L5.327,8.437 C5.390,8.495 5.418,8.580 5.402,8.664 L5.087,10.316 C5.077,10.373 5.086,10.431 5.114,10.481 C5.182,10.602 5.338,10.647 5.463,10.581 L6.982,9.780 C7.059,9.739 7.152,9.739 7.228,9.780 L8.748,10.581 C8.799,10.609 8.859,10.618 8.917,10.608 C9.056,10.583 9.149,10.452 9.123,10.316 L8.808,8.664 C8.792,8.580 8.821,8.495 8.884,8.437 L10.138,7.279 C10.181,7.240 10.208,7.187 10.216,7.131 C10.235,6.994 10.136,6.868 9.995,6.850 Z"/>
</svg>
