<svg 
 xmlns="http://www.w3.org/2000/svg"
 xmlns:xlink="http://www.w3.org/1999/xlink"
 width="15px" height="16px">
<path fill-rule="evenodd"  opacity="0.502" fill=""
 d="M14.868,10.789 C14.640,10.493 14.130,10.243 13.092,10.861 C13.192,10.426 12.848,10.159 12.441,10.159 C12.084,10.159 11.665,10.251 11.333,10.593 C10.856,9.959 10.366,10.038 9.408,10.631 C9.043,10.856 8.723,11.053 8.483,11.190 C8.420,11.228 8.366,11.253 8.317,11.282 C8.412,11.303 8.508,11.320 8.611,11.320 C9.951,11.320 11.009,11.320 11.009,12.493 C11.009,13.391 9.972,13.654 9.420,13.662 L6.939,13.662 C5.914,13.662 4.914,12.589 4.914,12.589 C4.914,12.589 6.097,13.077 6.939,13.077 L9.416,13.077 C9.420,13.077 10.429,13.040 10.429,12.493 C10.429,11.996 10.159,11.909 8.607,11.909 C7.599,11.909 6.578,11.307 6.578,11.307 C6.578,11.307 5.557,10.556 5.242,10.359 C4.499,9.896 3.906,9.449 2.612,9.963 C1.790,10.293 -0.002,11.132 -0.002,11.132 L1.649,14.823 L2.491,14.272 C2.960,13.971 3.217,13.921 3.819,14.234 C4.404,14.535 6.196,15.474 6.645,15.695 C8.022,16.368 8.615,15.766 9.279,15.378 C9.848,15.048 13.872,12.368 14.291,12.067 C14.959,11.591 15.167,11.182 14.868,10.789 L14.868,10.789 Z"/>
<path fill-rule="evenodd"  fill=""
 d="M11.258,8.226 L8.184,9.975 C7.661,10.272 7.068,10.272 6.549,9.975 L3.475,8.226 C2.952,7.930 2.657,7.424 2.657,6.832 L2.657,3.333 C2.657,2.740 2.952,2.235 3.475,1.938 L6.549,0.189 C7.072,-0.108 7.665,-0.108 8.184,0.189 L11.258,1.938 C11.781,2.235 12.076,2.740 12.076,3.333 L12.076,6.832 C12.080,7.420 11.781,7.925 11.258,8.226 ZM9.491,5.340 C9.766,5.340 9.989,5.110 9.989,4.817 C9.989,4.529 9.766,4.295 9.491,4.295 L8.467,4.295 L9.438,2.718 C9.564,2.479 9.487,2.178 9.272,2.038 C9.058,1.903 8.787,1.984 8.661,2.218 L7.548,4.074 C7.511,4.146 7.495,4.218 7.491,4.290 L7.487,4.290 C7.483,4.218 7.463,4.142 7.431,4.074 L6.329,2.223 C6.208,1.984 5.937,1.908 5.726,2.043 C5.516,2.178 5.443,2.484 5.564,2.723 L6.524,4.299 L5.500,4.299 C5.224,4.299 5.002,4.529 5.002,4.822 C5.002,5.110 5.224,5.344 5.500,5.344 L7.001,5.344 L7.001,6.384 L5.500,6.384 C5.224,6.384 5.002,6.614 5.002,6.907 C5.002,7.195 5.224,7.429 5.500,7.429 L7.001,7.429 L7.001,8.524 C7.001,8.785 7.224,8.992 7.499,8.992 C7.775,8.992 7.997,8.780 7.997,8.524 L7.997,7.429 L9.499,7.429 C9.774,7.429 9.997,7.200 9.997,6.907 C9.993,6.610 9.766,6.380 9.491,6.380 L7.989,6.380 L7.989,5.340 L9.491,5.340 Z"/>
</svg>
