<svg 
 xmlns="http://www.w3.org/2000/svg"
 xmlns:xlink="http://www.w3.org/1999/xlink"
 width="16px" height="16px">
<path fill-rule="evenodd"  fill="rgb(255, 255, 255)"
 d="M9.925,1.310 C11.783,1.493 13.274,2.611 13.594,4.535 L12.524,4.535 L14.262,7.119 L16.000,4.535 L14.801,4.535 C14.481,1.951 12.533,0.274 10.063,0.027 C9.724,-0.001 9.404,0.292 9.404,0.668 C9.413,0.989 9.633,1.282 9.925,1.310 L9.925,1.310 ZM7.236,-0.001 L1.198,-0.001 C0.860,-0.001 0.585,0.292 0.585,0.668 L0.585,6.423 C0.585,6.799 0.851,7.092 1.198,7.092 L7.236,7.092 C7.574,7.092 7.849,6.799 7.849,6.423 L7.849,0.668 C7.849,0.292 7.584,-0.001 7.236,-0.001 ZM6.651,5.809 L1.793,5.809 L1.793,1.282 L6.651,1.282 L6.651,5.809 ZM6.065,14.661 C3.988,14.478 2.397,13.085 2.323,10.794 L3.476,10.794 L1.738,8.210 L-0.000,10.794 L1.152,10.794 C1.198,13.754 3.275,15.669 5.946,15.935 C6.285,15.962 6.605,15.669 6.605,15.293 C6.605,14.982 6.376,14.716 6.065,14.661 L6.065,14.661 ZM14.811,8.879 L8.773,8.879 C8.425,8.879 8.160,9.172 8.160,9.548 L8.160,15.330 C8.160,15.705 8.425,15.999 8.773,15.999 L14.811,15.999 C15.149,15.999 15.424,15.705 15.424,15.330 L15.424,9.548 C15.424,9.172 15.131,8.879 14.811,8.879 ZM14.225,14.688 L9.367,14.688 L9.367,10.180 L14.225,10.180 L14.225,14.688 Z"/>
</svg>
