<svg 
 xmlns="http://www.w3.org/2000/svg"
 xmlns:xlink="http://www.w3.org/1999/xlink"
 width="11px" height="14px">
<path fill-rule="evenodd"  fill="rgb(165, 167, 175)"
 d="M5.501,0.000 C2.462,0.000 -0.000,2.479 -0.000,5.538 C-0.000,7.442 0.957,9.123 2.410,10.118 L2.410,10.133 L8.591,10.133 L8.591,10.118 C10.046,9.121 11.001,7.442 11.001,5.538 C11.003,2.479 8.540,0.000 5.501,0.000 ZM9.253,5.696 L8.622,5.696 C8.440,5.696 8.367,5.559 8.363,5.493 C8.264,4.079 7.145,2.943 5.744,2.828 C5.667,2.823 5.512,2.764 5.512,2.618 L5.512,1.934 C5.512,1.762 5.656,1.617 5.828,1.630 C7.813,1.784 9.400,3.386 9.551,5.384 C9.564,5.553 9.423,5.696 9.253,5.696 Z"/>
<path fill-rule="evenodd"  opacity="0.6" fill="rgb(165, 167, 175)"
 d="M2.744,12.336 C3.238,13.318 4.240,14.000 5.402,14.000 L5.604,14.000 C6.766,14.000 7.768,13.316 8.262,12.336 L2.744,12.336 ZM2.603,10.847 L2.603,11.508 C2.603,11.557 2.616,11.602 2.618,11.650 L8.386,11.650 C8.388,11.602 8.401,11.557 8.401,11.508 L8.401,10.847 L2.603,10.847 Z"/>
</svg>
