<svg 
 xmlns="http://www.w3.org/2000/svg"
 xmlns:xlink="http://www.w3.org/1999/xlink"
 width="14px" height="14px">
<path fill-rule="evenodd"  fill="rgb(165, 167, 175)"
 d="M14.000,5.000 L-0.000,5.000 L-0.000,13.222 C-0.000,13.652 0.348,14.000 0.778,14.000 L0.778,14.000 L13.222,14.000 C13.652,14.000 14.000,13.652 14.000,13.222 L14.000,13.222 L14.000,5.447 L14.000,5.000 ZM6.988,7.829 L8.826,5.995 L9.995,6.815 L8.746,8.059 L9.894,8.059 L9.894,9.334 L7.770,9.334 L7.770,10.056 L9.895,10.056 L9.895,11.331 L7.770,11.331 L7.770,12.992 L6.246,12.992 L6.246,11.331 L4.064,11.331 L4.064,10.056 L6.246,10.056 L6.246,9.333 L4.064,9.332 L4.064,8.057 L5.228,8.057 L3.983,6.814 L5.150,5.995 L6.989,7.829 L6.988,7.829 Z"/>
<path fill-rule="evenodd"  opacity="0.6" fill="rgb(165, 167, 175)"
 d="M-0.000,4.000 L-0.000,2.332 C-0.000,1.902 0.348,1.554 0.778,1.554 L3.238,1.554 L3.495,-0.000 L4.661,-0.000 L4.837,1.554 L9.161,1.554 L9.333,-0.000 L10.500,-0.000 L10.500,1.554 L13.222,1.554 C13.652,1.554 14.000,1.902 14.000,2.332 L14.000,4.000 L-0.000,4.000 ZM3.495,3.000 L3.495,3.111 L4.661,3.111 L4.661,3.000 L3.495,3.000 ZM9.333,3.000 L9.333,3.111 L10.500,3.111 L11.000,3.000 L9.333,3.000 Z"/>
</svg>
