<svg 
 xmlns="http://www.w3.org/2000/svg"
 xmlns:xlink="http://www.w3.org/1999/xlink"
 width="14px" height="14px">
<path fill-rule="evenodd"  fill="rgb(255, 255, 255)"
 d="M1.000,4.000 L13.000,4.000 C13.631,4.000 14.000,4.369 14.000,5.000 L14.000,12.857 C14.000,13.488 13.488,14.000 12.857,14.000 L1.143,14.000 C0.512,14.000 -0.000,13.488 -0.000,12.857 L-0.000,13.857 L-0.000,5.000 C-0.000,4.369 0.369,4.000 1.000,4.000 ZM3.819,7.187 C3.795,7.423 3.870,7.659 4.026,7.841 C4.177,8.019 4.397,8.128 4.635,8.141 L11.329,8.141 C11.920,8.193 12.224,7.803 11.812,7.373 L9.437,5.241 C8.797,4.783 8.363,5.088 8.363,5.493 L8.363,6.376 L4.724,6.376 C4.282,6.447 3.927,6.766 3.819,7.187 ZM10.181,10.847 C10.205,10.613 10.130,10.380 9.973,10.201 C9.822,10.025 9.602,9.918 9.365,9.906 L2.671,9.906 C2.080,9.854 1.776,10.238 2.187,10.663 L4.563,12.767 C5.203,13.218 5.637,12.918 5.637,12.519 L5.637,11.671 L9.276,11.671 C9.716,11.588 10.068,11.268 10.181,10.847 L10.181,10.847 Z"/>
<path fill-rule="evenodd"  opacity="0.6" fill="rgb(255, 255, 255)"
 d="M1.749,2.003 L12.251,2.003 C12.666,2.003 13.001,2.226 13.001,2.500 L13.001,2.998 L0.998,2.998 L0.998,2.500 C0.998,2.226 1.334,2.003 1.749,2.003 L1.749,2.003 ZM3.725,-0.000 L10.275,-0.000 C10.677,-0.000 11.003,0.223 11.003,0.498 L11.003,0.995 L2.997,0.995 L2.997,0.498 C2.997,0.223 3.323,-0.000 3.725,-0.000 L3.725,-0.000 Z"/>
</svg>
