<svg 
 xmlns="http://www.w3.org/2000/svg"
 xmlns:xlink="http://www.w3.org/1999/xlink"
 width="14px" height="14px">
<path fill-rule="evenodd"  fill=""
 d="M12.502,14.000 L11.398,14.000 C10.663,14.000 10.295,13.633 10.295,12.900 L10.295,7.233 C10.295,6.500 10.663,6.133 11.398,6.133 L12.502,6.133 C13.238,6.133 13.605,6.500 13.605,7.233 L13.605,12.900 C13.605,13.633 13.238,14.000 12.502,14.000 ZM7.536,14.000 L6.432,14.000 C5.697,14.000 5.329,13.633 5.329,12.900 L5.329,8.883 C5.329,8.150 5.697,7.783 6.432,7.783 L7.536,7.783 C8.272,7.783 8.639,8.150 8.639,8.883 L8.639,12.900 C8.639,13.633 8.272,14.000 7.536,14.000 ZM2.570,14.000 L1.466,14.000 C0.731,14.000 0.363,13.633 0.363,12.900 L0.363,11.083 C0.363,10.350 0.731,9.983 1.466,9.983 L2.570,9.983 C3.306,9.983 3.673,10.350 3.673,11.083 L3.673,12.900 C3.673,13.633 3.306,14.000 2.570,14.000 Z"/>
<path fill-rule="evenodd"  opacity="0.502" fill=""
 d="M13.172,4.493 C12.715,4.493 12.345,4.124 12.345,3.668 L12.345,2.807 L9.809,4.925 C8.562,5.999 6.715,6.010 5.456,4.950 C4.794,4.386 3.810,4.420 3.191,5.030 L1.397,6.743 C1.243,6.890 1.037,6.972 0.824,6.971 C0.366,6.969 -0.003,6.598 -0.001,6.143 C-0.000,5.920 0.091,5.707 0.252,5.552 L2.040,3.850 C3.269,2.642 5.223,2.577 6.529,3.701 C7.167,4.243 8.107,4.234 8.736,3.682 L11.157,1.650 L10.320,1.650 C9.862,1.650 9.492,1.280 9.492,0.825 C9.492,0.369 9.862,-0.000 10.320,-0.000 L13.172,-0.000 C13.629,-0.000 14.000,0.369 14.000,0.825 L14.000,3.668 C14.000,4.124 13.629,4.493 13.172,4.493 Z"/>
</svg>
