<svg 
 xmlns="http://www.w3.org/2000/svg"
 xmlns:xlink="http://www.w3.org/1999/xlink"
 width="20px" height="20px">
<path fill-rule="evenodd"  opacity="0.6" fill="rgb(255, 255, 255)"
 d="M18.319,12.173 C17.391,12.173 16.639,11.395 16.639,10.434 C16.639,9.473 17.391,8.695 18.319,8.695 C19.248,8.695 20.000,9.473 20.000,10.434 C20.000,11.395 19.248,12.173 18.319,12.173 ZM17.692,7.039 C17.283,7.266 16.774,7.106 16.555,6.682 C15.840,5.333 14.760,4.230 13.446,3.511 C13.036,3.286 12.879,2.760 13.096,2.336 C13.313,1.911 13.821,1.749 14.232,1.974 C15.836,2.853 17.157,4.199 18.029,5.847 C18.032,5.852 18.035,5.857 18.037,5.862 C18.256,6.286 18.102,6.813 17.692,7.039 ZM13.193,14.447 C13.193,15.024 12.742,15.491 12.185,15.491 C11.628,15.491 11.176,15.024 11.176,14.447 L11.176,6.786 C11.176,6.209 11.628,5.742 12.185,5.742 C12.742,5.742 13.193,6.209 13.193,6.786 L13.193,14.447 ZM9.748,3.478 C8.820,3.478 8.067,2.699 8.067,1.739 C8.067,0.778 8.820,-0.000 9.748,-0.000 C10.676,-0.000 11.429,0.778 11.429,1.739 C11.429,2.699 10.676,3.478 9.748,3.478 ZM8.890,9.586 L8.890,14.447 C8.890,14.447 8.890,14.448 8.890,14.448 C8.890,15.024 8.438,15.491 7.881,15.491 C7.325,15.491 6.873,15.024 6.874,14.447 L6.874,9.586 C6.874,9.586 6.874,9.585 6.874,9.585 C6.874,9.009 7.326,8.542 7.882,8.542 C8.439,8.542 8.891,9.010 8.890,9.586 ZM6.162,3.638 C4.984,4.337 4.009,5.350 3.337,6.570 C3.108,6.988 2.595,7.134 2.191,6.896 C1.788,6.659 1.647,6.128 1.876,5.710 C2.697,4.219 3.888,2.983 5.326,2.130 C5.729,1.891 6.243,2.035 6.473,2.452 C6.704,2.868 6.565,3.400 6.162,3.638 ZM3.361,10.434 C3.361,10.434 3.361,10.434 3.361,10.435 C3.361,11.395 2.609,12.174 1.680,12.173 C0.752,12.173 -0.000,11.395 -0.000,10.434 L-0.000,10.434 C-0.000,9.473 0.752,8.695 1.681,8.695 C2.609,8.695 3.361,9.473 3.361,10.434 ZM2.167,13.915 C2.572,13.680 3.084,13.830 3.311,14.249 C4.639,16.706 7.146,18.260 9.916,18.260 C12.723,18.260 15.258,16.664 16.571,14.155 C16.793,13.732 17.303,13.576 17.711,13.804 C18.119,14.033 18.271,14.561 18.049,14.983 C16.445,18.048 13.347,19.999 9.916,19.999 C6.531,19.999 3.467,18.099 1.844,15.098 L1.844,15.098 C1.617,14.679 1.762,14.149 2.167,13.915 Z"/>
</svg>
